<!-- 使用用户上传的世界地图 -->
<svg xmlns="http://www.w3.org/2000/svg" viewBox="0 0 1920 1080" fill="none">
  <rect width="1920" height="1080" fill="#F8FAFC"/>
  <g opacity="0.15" fill="#CBD5E1">
    <!-- 北美洲 -->
    <path d="M200,250 L180,280 L160,320 L150,360 L160,400 L180,440 L220,460 L260,470 L300,460 L340,440 L380,400 L400,360 L420,320 L440,280 L460,250 L480,220 L460,190 L420,170 L380,160 L340,170 L300,190 L260,210 L220,230 Z"/>
    <path d="M300,200 L320,180 L360,170 L400,180 L440,200 L480,230 L500,270 L510,310 L500,350 L480,380 L450,400 L410,410 L370,400 L340,380 L320,350 L310,310 L300,270 Z"/>
    
    <!-- 南美洲 -->
    <path d="M350,500 L370,520 L390,560 L400,600 L410,640 L420,680 L410,720 L390,750 L360,770 L330,780 L300,770 L280,750 L270,720 L280,680 L300,640 L320,600 L340,560 Z"/>
    
    <!-- 欧洲 -->
    <path d="M850,200 L880,190 L920,200 L960,220 L990,250 L1000,280 L990,310 L960,330 L920,340 L880,330 L850,310 L840,280 L850,250 Z"/>
    <path d="M900,220 L930,210 L970,220 L1000,240 L1020,270 L1010,300 L980,320 L940,330 L900,320 L880,300 L890,270 Z"/>
    
    <!-- 非洲 -->
    <path d="M850,350 L880,360 L920,380 L950,410 L970,450 L980,490 L970,530 L950,570 L920,600 L880,620 L840,630 L800,620 L770,600 L750,570 L740,530 L750,490 L770,450 L800,410 L830,380 Z"/>
    
    <!-- 亚洲 -->
    <path d="M1100,200 L1150,190 L1200,200 L1250,220 L1300,250 L1350,290 L1380,330 L1400,370 L1410,410 L1400,450 L1380,480 L1350,500 L1300,510 L1250,500 L1200,480 L1150,450 L1110,410 L1090,370 L1080,330 L1090,290 L1100,250 Z"/>
    <path d="M1200,250 L1250,240 L1300,250 L1350,280 L1380,320 L1390,360 L1380,400 L1350,430 L1300,450 L1250,460 L1200,450 L1160,430 L1140,400 L1150,360 L1170,320 Z"/>
    
    <!-- 澳大利亚 -->
    <path d="M1400,600 L1450,610 L1500,630 L1530,660 L1540,690 L1530,720 L1500,740 L1450,750 L1400,740 L1370,720 L1360,690 L1370,660 L1400,630 Z"/>
    
    <!-- 额外的陆地细节 -->
    <ellipse cx="500" cy="300" rx="80" ry="60" opacity="0.3"/>
    <ellipse cx="900" cy="280" rx="60" ry="40" opacity="0.3"/>
    <ellipse cx="1300" cy="350" rx="100" ry="80" opacity="0.3"/>
    <ellipse cx="350" cy="650" rx="50" ry="70" opacity="0.3"/>
    <ellipse cx="1450" cy="680" rx="70" ry="50" opacity="0.3"/>
  </g>
</svg>
