<svg width="300" height="100" viewBox="0 0 300 100" fill="none" xmlns="http://www.w3.org/2000/svg">
<path fill-rule="evenodd" clip-rule="evenodd" d="M70.4839 29.4722C69.0151 29.1527 67.4078 29 65.6265 29H48.0742V66.2282H66.1199C67.7866 66.2282 69.4166 66.0189 70.9844 65.6019C72.5705 65.1848 73.9871 64.5444 75.2198 63.6708C76.444 62.8056 77.4364 61.6845 78.1645 60.3005C78.8869 58.9335 79.2488 57.3078 79.2488 55.4191C79.2488 53.0907 78.6946 51.1045 77.5651 49.4434C76.4398 47.795 74.742 46.6358 72.4504 45.977C74.1341 45.1811 75.3923 44.1562 76.2504 42.9065C77.1 41.6554 77.5255 40.089 77.5255 38.2159C77.5255 36.4827 77.2414 35.0167 76.6745 33.8475C76.092 32.6586 75.2806 31.7157 74.2443 31.0074C73.1911 30.2978 71.9443 29.7818 70.4839 29.4722ZM67.3173 59.6545C66.5963 59.8157 65.8287 59.8877 65.0186 59.8877H56.2722V49.6357H65.184C66.9483 49.6357 68.3818 50.0414 69.4576 50.8571C70.532 51.6855 71.072 53.0469 71.072 54.9667C71.072 55.945 70.9123 56.755 70.5815 57.3799C70.2521 58.009 69.7969 58.5037 69.2498 58.8656C68.7013 59.2403 68.051 59.4947 67.3173 59.6545ZM68.174 42.997C67.2212 43.6967 66.0195 44.0403 64.5663 44.0403H56.2722V35.3404H63.9414C64.6652 35.3404 65.3735 35.3927 66.0492 35.5242C66.7363 35.6429 67.3286 35.8621 67.8531 36.1787C68.3818 36.4827 68.8002 36.9181 69.1169 37.4737C69.4223 38.0292 69.5735 38.7446 69.5735 39.6112C69.5735 41.1705 69.1169 42.3085 68.174 42.997Z" fill="#030404"/>
<path fill-rule="evenodd" clip-rule="evenodd" d="M95.7218 61.3918C93.6451 61.3918 92.0434 60.8475 90.9351 59.7646C89.8211 58.6817 89.1016 56.663 89.1016 54.5325H108.552C108.692 52.4417 108.523 50.4427 108.038 48.5314C107.549 46.6159 106.768 44.9081 105.669 43.4153C104.57 41.9196 103.172 40.7236 101.466 39.8429C99.7537 38.9494 97.7561 38.5098 95.4744 38.5098C93.4105 38.5098 91.5444 38.8773 89.8536 39.6068C88.1629 40.3391 86.7096 41.3414 85.4854 42.6123C84.2639 43.8761 83.3351 45.3831 82.6622 47.1305C82.0034 48.8707 81.667 50.7537 81.667 52.7683C81.667 54.8535 81.9907 56.7775 82.634 58.5149C83.2842 60.2622 84.1975 61.7494 85.3723 63.0076C86.5781 64.2587 88.0102 65.2201 89.725 65.9057C91.4412 66.5829 93.3511 66.9264 95.4744 66.9264C98.5223 66.9264 101.136 66.228 103.281 64.8285C105.449 63.4332 107.04 61.1175 108.087 57.8717H101.567C101.314 58.7072 100.661 59.5102 99.5897 60.2622C98.5068 61.0143 97.2161 61.3918 95.7218 61.3918ZM95.2525 44.1009C97.0705 44.1009 98.5619 44.6268 99.4412 45.6008C100.325 46.5834 100.971 47.9787 101.148 49.866H89.1016C89.1355 49.3401 89.2486 48.7449 89.4394 48.0889C89.6289 47.416 89.954 46.7869 90.4318 46.1903C90.9125 45.6037 91.5402 45.1061 92.3064 44.7046C93.091 44.2988 94.0692 44.1009 95.2525 44.1009Z" fill="#030404"/>
<path d="M119.073 29V43.0365H119.242C120.182 41.4744 121.371 40.3392 122.832 39.6352C124.291 38.9269 125.714 38.5749 127.102 38.5749C129.08 38.5749 130.699 38.8351 131.965 39.3723C133.232 39.9165 134.233 40.6545 134.967 41.6144C135.688 42.57 136.195 43.7377 136.493 45.1118C136.786 46.4831 136.939 47.9958 136.939 49.6639V66.2282H129.499V51.0084C129.499 48.7874 129.152 47.1193 128.461 46.0279C127.77 44.9351 126.544 44.3866 124.773 44.3866C122.771 44.3866 121.325 44.9945 120.428 46.1905C119.514 47.3893 119.073 49.36 119.073 52.1025V66.2282H111.634V29H119.073Z" fill="#030404"/>
<path fill-rule="evenodd" clip-rule="evenodd" d="M145.126 40.4479C143.946 41.1406 142.975 42.0694 142.221 43.2159C141.444 44.3624 141.013 45.8072 140.905 47.556H148.334C148.482 46.09 148.962 45.041 149.797 44.4034C150.61 43.7857 151.758 43.4619 153.206 43.4619C153.857 43.4619 154.469 43.51 155.045 43.5934C155.612 43.6853 156.104 43.8563 156.542 44.1193C156.966 44.3822 157.315 44.7441 157.571 45.2107C157.828 45.6857 157.968 46.3218 157.968 47.1191C158.002 47.8924 157.772 48.4706 157.293 48.8707C156.803 49.268 156.14 49.5804 155.311 49.7882C154.469 49.9988 153.528 50.1501 152.439 50.2575C151.356 50.3636 150.269 50.5035 149.154 50.6746C148.057 50.8456 146.949 51.0874 145.856 51.3828C144.756 51.6741 143.782 52.1208 142.937 52.7131C142.074 53.3026 141.386 54.0985 140.857 55.0895C140.311 56.0777 140.037 57.3415 140.037 58.8768C140.037 60.2693 140.277 61.4724 140.744 62.486C141.213 63.4911 141.857 64.3238 142.693 64.9924C143.526 65.6512 144.502 66.1375 145.601 66.4514C146.718 66.7638 147.911 66.9264 149.192 66.9264C150.863 66.9264 152.49 66.6832 154.086 66.1997C155.695 65.7106 157.078 64.8539 158.255 63.6353C158.289 64.0891 158.35 64.5316 158.438 64.9628C158.522 65.4024 158.708 65.9057 158.928 66.228L166.493 66.2464C166.134 65.6951 165.752 64.8539 165.606 63.7343C165.475 62.6217 165.401 61.461 165.401 60.2396V46.1903C165.401 44.5505 165.031 43.2287 164.297 42.2518C163.572 41.2481 162.638 40.4819 161.493 39.9192C160.343 39.3608 159.079 38.9862 157.694 38.7967C156.289 38.6045 154.922 38.5098 153.572 38.5098C152.072 38.5098 150.593 38.6525 149.114 38.9579C147.63 39.252 146.308 39.7453 145.126 40.4479ZM155.298 54.0985C155.824 53.9883 156.333 53.8596 156.794 53.7055C157.27 53.55 157.649 53.3323 157.968 53.0468V55.8176C157.968 56.2375 157.924 56.7959 157.828 57.4914C157.752 58.1813 157.522 58.8655 157.141 59.5427C156.767 60.2212 156.166 60.8051 155.371 61.2914C154.57 61.7763 153.447 62.018 151.993 62.018C151.406 62.018 150.833 61.9785 150.279 61.8668C149.732 61.765 149.243 61.5826 148.825 61.3197C148.405 61.0581 148.084 60.7061 147.839 60.2523C147.602 59.7971 147.476 59.2401 147.476 58.5828C147.476 57.8929 147.602 57.3076 147.839 56.8581C148.084 56.4113 148.405 56.0381 148.806 55.7398C149.192 55.4444 149.663 55.2111 150.2 55.0372C150.727 54.8605 151.283 54.7248 151.837 54.6145C152.418 54.5099 153.018 54.4293 153.6 54.3601C154.188 54.2851 154.755 54.2017 155.298 54.0985Z" fill="#030404"/>
<path d="M176.507 39.2792V43.0368H176.672C177.608 41.4747 178.818 40.3395 180.32 39.6355C181.808 38.9272 183.351 38.5752 184.913 38.5752C186.899 38.5752 188.53 38.8353 189.79 39.3725C191.072 39.9168 192.069 40.6547 192.791 41.6146C193.532 42.5703 194.041 43.738 194.338 45.1121C194.637 46.4834 194.786 47.996 194.786 49.6642V66.2284H187.343V51.0086C187.343 48.7877 186.994 47.1195 186.3 46.0282C185.594 44.9354 184.38 44.2356 182.597 44.2356C180.584 44.2356 179.115 44.9948 178.215 46.1908C177.306 47.3896 176.858 49.3602 176.858 52.1028V66.2284H169.495V39.2792H176.507Z" fill="#030404"/>
<path d="M208.301 44.9081C209.091 44.3624 210.074 44.1009 211.264 44.1009C214.429 44.1009 216.253 45.6362 216.734 48.7124H223.994C223.88 46.9834 223.467 45.4708 222.745 44.2069C222.014 42.9445 221.06 41.8857 219.895 41.0374C218.733 40.1807 217.408 39.5446 215.935 39.1318C214.451 38.7261 212.914 38.5098 211.314 38.5098C209.127 38.5098 207.179 38.8773 205.474 39.6068C203.762 40.3391 202.314 41.3569 201.131 42.666C199.936 43.9666 199.04 45.5174 198.434 47.3086C197.824 49.104 197.518 51.0478 197.518 53.1344C197.518 55.1503 197.848 57.0065 198.506 58.6973C199.179 60.3838 200.098 61.8371 201.282 63.0585C202.467 64.2757 203.905 65.2201 205.598 65.9057C207.295 66.5829 209.134 66.9264 211.158 66.9264C214.74 66.9264 217.682 65.9778 219.98 64.1075C222.268 62.2244 223.659 59.4946 224.15 55.9194H217C216.751 57.5875 216.161 58.9178 215.208 59.9088C214.251 60.8942 212.886 61.3918 211.103 61.3918C209.954 61.3918 208.985 61.1317 208.189 60.6058C207.389 60.0799 206.756 59.4112 206.28 58.5997C205.81 57.7727 205.478 56.8637 205.262 55.8558C205.06 54.8436 204.947 53.8526 204.947 52.8743C204.947 51.8621 205.06 50.8456 205.262 49.8165C205.478 48.7873 205.827 47.8472 206.332 46.9976C206.835 46.1423 207.494 45.4538 208.301 44.9081Z" fill="#030404"/>
<path d="M102.678 31.4971H87.5869V35.1713H102.678V31.4971Z" fill="#030404"/>
<path fill-rule="evenodd" clip-rule="evenodd" d="M240.167 61.3918C238.075 61.3918 236.396 60.8475 235.283 59.7646C234.168 58.6817 233.457 56.663 233.457 54.5325H252.994C253.131 52.4417 252.947 50.4427 252.469 48.5314C251.984 46.6159 251.194 44.9081 250.096 43.4153C249.004 41.9196 247.599 40.7236 245.889 39.8429C244.194 38.9494 242.188 38.5098 239.91 38.5098C237.856 38.5098 235.976 38.8773 234.282 39.6068C232.596 40.3391 231.157 41.3414 229.924 42.6123C228.711 43.8761 227.762 45.3831 227.095 47.1305C226.436 48.8707 226.105 50.7537 226.105 52.7683C226.105 54.8535 226.425 56.7775 227.068 58.5149C227.716 60.2622 228.626 61.7494 229.814 63.0076C231.014 64.2587 232.449 65.2201 234.161 65.9057C235.863 66.5829 237.781 66.9264 239.91 66.9264C242.968 66.9264 245.572 66.228 247.724 64.8285C249.879 63.4332 251.48 61.1175 252.522 57.8717H246.002C245.764 58.7072 245.097 59.5102 244.021 60.2622C242.945 61.0143 241.657 61.3918 240.167 61.3918ZM239.694 44.1009C241.489 44.1009 242.991 44.6268 243.883 45.6008C244.766 46.5834 245.397 47.9787 245.595 49.866H233.457C233.489 49.3401 233.612 48.7449 233.787 48.0889C233.984 47.416 234.322 46.7869 234.793 46.1903C235.263 45.6037 235.965 45.1061 236.732 44.7046C237.529 44.2988 238.512 44.1009 239.694 44.1009Z" fill="#030404"/>
</svg>
