<svg width="300" height="100" viewBox="0 0 300 100" fill="none" xmlns="http://www.w3.org/2000/svg">
<path d="M60.061 37.7285C60.061 35.3489 60.7643 34.2701 63.1968 34.2701L66.6452 34.2776V28.2757C65.1398 28.0924 63.6243 28.0024 62.1078 28.006C54.8708 28.006 52.2769 31.4039 52.2769 37.8369V41.6761H47.0312V48.0536H52.2769V67.408H60.0635V48.0536H65.899L66.5494 41.6761H60.061V37.7285Z" fill="#1877F2"/>
<path fill-rule="evenodd" clip-rule="evenodd" d="M77.6297 41.1269C70.4934 41.1269 67.0879 46.5415 67.0879 53.7308V55.3466C67.0879 62.5434 70.4934 67.9504 77.6297 67.9504C81.5217 67.9504 83.9542 66.0044 85.0356 63.5164V67.4084H92.4945V41.6765H85.0356V45.6139C83.8988 43.1284 81.5217 41.1269 77.6297 41.1269ZM79.8983 61.8401C76.276 61.8401 74.872 59.2991 74.872 55.4625V53.635C74.872 49.7984 76.276 47.2574 79.8983 47.2574C83.0896 47.2574 84.7104 49.5816 84.7104 53.2569V55.8406C84.7104 59.5159 83.0896 61.8401 79.8983 61.8401Z" fill="#1877F2"/>
<path d="M108.711 41.1348C111.736 41.1348 114.602 41.7851 116.17 42.864L114.441 48.3794C112.819 47.6071 111.047 47.2007 109.251 47.1896C105.033 47.1896 103.201 49.6222 103.201 53.7865V55.2989C103.201 59.4632 105.038 61.8958 109.251 61.8958C111.047 61.8844 112.819 61.4783 114.441 60.706L116.17 66.2189C114.602 67.3003 111.739 67.9506 108.711 67.9506C99.5735 67.9506 95.4117 63.0301 95.4117 55.1376V53.9478C95.4117 46.0553 99.5735 41.1348 108.711 41.1348Z" fill="#1877F2"/>
<path fill-rule="evenodd" clip-rule="evenodd" d="M117.202 53.2569V55.5256C117.202 63.0878 120.878 68.0033 130.731 68.0059C134.459 68.0059 138.676 67.1967 140.731 66.1128L139.307 60.7814C137.035 61.7544 133.955 62.3493 131.034 62.3493C126.716 62.3493 125.148 60.7814 124.984 57.2674H141.369V53.1586C141.369 46.0223 137.855 41.1572 129.854 41.1572C121.364 41.1572 117.202 45.9593 117.202 53.2569ZM134.394 52.1729H124.986V52.1629C124.986 48.7044 126.34 46.4861 129.856 46.4836C133.259 46.4836 134.394 48.7145 134.394 51.5251V52.1729Z" fill="#1877F2"/>
<path fill-rule="evenodd" clip-rule="evenodd" d="M170.222 55.3547C170.222 62.5439 166.763 67.9585 159.634 67.9585C155.742 67.9585 153.04 66.0125 151.959 63.5245V67.4165H144.608V28.7556L152.392 28.0498V45.2414C153.527 42.9727 156.015 41.1326 159.637 41.1326C166.773 41.1326 170.224 46.5396 170.224 53.7364L170.222 55.3547ZM162.438 53.57C162.438 49.9477 161.034 47.2454 157.303 47.2454C154.112 47.2454 152.382 49.5141 152.382 53.1919V55.8941C152.382 59.5694 154.112 61.8406 157.303 61.8406C161.034 61.8406 162.438 59.1384 162.438 55.516V53.57Z" fill="#1877F2"/>
<path fill-rule="evenodd" clip-rule="evenodd" d="M172.831 53.8949V55.1905C172.831 62.5965 177.05 67.9506 185.646 67.9506C194.242 67.9506 198.459 62.5965 198.459 55.1905V53.8949C198.459 46.4863 194.239 41.1348 185.644 41.1348C177.048 41.1348 172.831 46.4863 172.831 53.8949ZM185.631 47.2451C189.266 47.2451 190.672 49.9473 190.672 53.3529V55.7325C190.672 59.138 189.253 61.8403 185.631 61.8403C182.009 61.8403 180.602 59.138 180.602 55.7325V53.3529C180.602 49.9473 181.996 47.2451 185.631 47.2451Z" fill="#1877F2"/>
<path fill-rule="evenodd" clip-rule="evenodd" d="M201.037 55.1905V53.8949C201.037 46.4863 205.254 41.1348 213.85 41.1348C222.446 41.1348 226.663 46.4863 226.663 53.8949V55.1905C226.663 62.5965 222.446 67.9506 213.85 67.9506C205.254 67.9506 201.037 62.5965 201.037 55.1905ZM218.879 53.3529C218.879 49.9473 217.473 47.2451 213.85 47.2451C210.228 47.2451 208.824 49.9473 208.824 53.3529V55.7325C208.824 59.138 210.228 61.8403 213.85 61.8403C217.473 61.8403 218.879 59.138 218.879 55.7325V53.3529Z" fill="#1877F2"/>
<path d="M245.042 41.677L237.366 53.9481V28.0498L229.58 28.7556V67.409H237.366V54.8052L245.367 67.409H253.638L245.259 54.3817L253.313 41.677H245.042Z" fill="#1877F2"/>
</svg>
