<svg width="300" height="100" viewBox="0 0 300 100" fill="none" xmlns="http://www.w3.org/2000/svg">
<path d="M161.126 42.3018C158.525 42.3018 156.587 43.58 156.587 46.654C156.587 48.9697 157.863 50.579 160.985 50.579C163.633 50.579 165.431 49.0208 165.431 46.5583C165.431 43.7686 163.822 42.3018 161.126 42.3018ZM155.925 64.0137C155.309 64.7692 154.695 65.5735 154.695 66.5203C154.695 68.4116 157.105 68.9789 160.416 68.9789C163.161 68.9789 166.898 68.7876 166.898 66.2382C166.898 64.7203 165.1 64.6268 162.828 64.4844L155.925 64.0137ZM169.925 42.4442C170.775 43.5333 171.675 45.0469 171.675 47.223C171.675 52.4708 167.56 55.5469 161.601 55.5469C160.085 55.5469 158.714 55.3578 157.863 55.1203L156.303 57.6273L160.937 57.9099C169.121 58.4317 173.944 58.6697 173.944 64.9578C173.944 70.3969 169.167 73.4713 160.937 73.4713C152.377 73.4713 149.112 71.2953 149.112 67.5583C149.112 65.4295 150.059 64.2974 151.715 62.7333C150.152 62.0751 149.634 60.8925 149.634 59.6143C149.634 58.5741 150.152 57.6273 151.006 56.7273C151.857 55.8295 152.802 54.9311 153.938 53.8909C151.621 52.755 149.87 50.2947 149.87 46.7942C149.87 41.355 153.464 37.6203 160.701 37.6203C162.735 37.6203 163.964 37.8072 165.053 38.0942H174.277V42.1126L169.925 42.4442Z" fill="#362701"/>
<path d="M182.599 33.8484C179.902 33.8484 178.342 32.2886 178.342 29.5897C178.342 26.8957 179.902 25.4288 182.599 25.4288C185.343 25.4288 186.904 26.8962 186.904 29.5897C186.904 32.2881 185.344 33.8484 182.599 33.8484ZM176.497 62.275V58.5381L178.909 58.2087C179.571 58.1136 179.666 57.9712 179.666 57.2598V43.3549C179.666 42.837 179.525 42.5038 179.051 42.3636L176.497 41.4636L177.017 37.6337H186.808V57.2609C186.808 58.0212 186.855 58.1142 187.566 58.2098L189.978 58.5392V62.2756L176.497 62.275Z" fill="#362701"/>
<path d="M208.679 60.4401C206.646 61.4319 203.667 62.3319 200.969 62.3319C195.341 62.3319 193.214 60.0629 193.214 54.7151V42.3254C193.214 42.0406 193.214 41.852 192.833 41.852H189.522V37.6422C193.687 37.1689 195.341 35.0863 195.861 29.9314H200.355V36.6488C200.355 36.9797 200.355 37.1216 200.733 37.1216H207.402V41.852H200.355V53.1547C200.355 55.946 201.017 57.033 203.572 57.033C204.896 57.033 206.267 56.702 207.402 56.2776L208.679 60.4401Z" fill="#362701"/>
<path d="M138.832 47.7946L117.206 26.1704C116.91 25.874 116.558 25.6388 116.171 25.4784C115.784 25.3179 115.369 25.2354 114.95 25.2354C114.531 25.2354 114.116 25.3179 113.729 25.4784C113.341 25.6388 112.99 25.874 112.693 26.1704L108.204 30.6616L113.9 36.357C114.569 36.1296 115.289 36.0941 115.978 36.2545C116.667 36.4149 117.297 36.7648 117.797 37.2647C118.3 37.7682 118.651 38.4031 118.81 39.0967C118.969 39.7904 118.93 40.5148 118.697 41.1872L124.188 46.6767C124.86 46.4431 125.585 46.4037 126.279 46.5631C126.973 46.7225 127.608 47.0742 128.111 47.5779C128.463 47.9303 128.743 48.3487 128.934 48.8091C129.124 49.2696 129.223 49.7631 129.223 50.2615C129.223 50.7599 129.124 51.2534 128.934 51.7138C128.743 52.1743 128.463 52.5926 128.111 52.945C127.398 53.6568 126.432 54.0567 125.425 54.0567C124.418 54.0567 123.452 53.6568 122.739 52.945C122.21 52.4148 121.849 51.7399 121.703 51.0052C121.556 50.2705 121.63 49.5088 121.916 48.8161L116.795 43.6969V57.171C117.335 57.438 117.805 57.8299 118.163 58.3143C118.522 58.7987 118.761 59.3616 118.859 59.9565C118.957 60.5513 118.911 61.1609 118.727 61.7348C118.542 62.3087 118.224 62.8304 117.798 63.2567C117.445 63.6091 117.027 63.8887 116.566 64.0794C116.106 64.2702 115.612 64.3684 115.114 64.3684C114.616 64.3684 114.122 64.2702 113.662 64.0794C113.201 63.8887 112.783 63.6091 112.43 63.2567C112.078 62.9043 111.798 62.4859 111.607 62.0254C111.417 61.5649 111.318 61.0713 111.318 60.5728C111.318 60.0744 111.417 59.5808 111.607 59.1203C111.798 58.6598 112.078 58.2414 112.43 57.889C112.786 57.5332 113.208 57.2512 113.672 57.0594V43.4614C113.21 43.2707 112.789 42.9905 112.435 42.6369C112.081 42.2832 111.8 41.8631 111.608 41.4006C111.417 40.9381 111.319 40.4423 111.32 39.9418C111.321 39.4413 111.42 38.9458 111.613 38.484L105.998 32.8673L91.1676 47.6933C90.57 48.292 90.2344 49.1034 90.2344 49.9494C90.2344 50.7953 90.57 51.6067 91.1676 52.2055L112.795 73.8324C113.394 74.4298 114.205 74.7654 115.051 74.7654C115.896 74.7654 116.708 74.4298 117.307 73.8324L138.832 52.3068C139.43 51.7081 139.766 50.8967 139.766 50.0507C139.766 49.2048 139.43 48.3934 138.832 47.7946Z" fill="#F03C2E"/>
</svg>
