<svg width="250" height="100" viewBox="0 0 250 100" fill="none" xmlns="http://www.w3.org/2000/svg">
<g clip-path="url(#clip0_1502_2802)">
<path d="M48.5637 92.7125V99.6502H0V92.7125H48.5637ZM124.458 92.7122C119.586 97.1908 113.205 99.668 106.588 99.6498L55.5014 99.5812V92.7122H124.458ZM196.667 92.7121L194.244 99.6498L191.843 92.7121H196.667ZM173.442 92.7125V99.6502H138.753V92.7125H173.442ZM249.756 92.7125V99.6502H215.068V92.7125H249.756ZM132.315 79.4678C131.72 81.9014 130.78 84.2375 129.524 86.4054H55.5014V79.4678H132.315ZM201.316 79.468L198.881 86.4057H189.629L187.194 79.468H201.316ZM173.442 79.4678V86.4054H138.753V79.4678H173.442ZM249.756 79.4678V86.4054H215.068V79.4678H249.756ZM48.5637 79.4678V86.4054H0V79.4678H48.5637ZM34.6883 66.2231V73.1609H13.8753V66.2231H34.6883ZM90.1897 66.2231V73.1609H69.3767V66.2231H90.1897ZM132.149 66.2231C132.764 68.4845 133.076 70.8174 133.077 73.1609H109.741V66.2231H132.149ZM205.966 66.2231L203.53 73.1609H184.98L182.544 66.2231H205.966ZM173.442 66.2231V73.1609H152.629V66.2231H173.442ZM235.881 66.2231V73.1609H215.068V66.2231H235.881ZM34.6883 52.9785V59.9162H13.8753V52.9785H34.6883ZM173.442 52.9785V59.9162H152.629V52.9785H173.442ZM235.881 52.9785V59.9162H215.068V52.9785H235.881ZM123.73 52.9782C126.04 54.9438 127.997 57.2902 129.517 59.9158H69.3765V52.9782H123.73ZM210.615 52.9782L208.18 59.916H180.329L177.894 52.9782H210.615ZM192.304 39.7341L194.255 45.3419L196.204 39.7341H235.881V46.6719H215.068V40.2969L212.83 46.6719H175.68L173.442 40.2961V46.6719H152.629V39.7341H192.304ZM69.3767 39.7338L129.517 39.7342C127.998 42.3599 126.041 44.7063 123.73 46.6719H69.3767V39.7338ZM34.6883 39.7338V46.6715H13.8753V39.7338H34.6883ZM34.6883 26.4893V33.4269H13.8753V26.4893H34.6883ZM90.1897 26.4893V33.4269H69.3767V26.4893H90.1897ZM133.077 26.4893C133.076 28.8328 132.764 31.1657 132.149 33.427H109.741V26.4893H133.077ZM187.699 26.4893L190.111 33.427H152.629V26.4893H187.699ZM235.881 26.4893V33.427H198.398L200.811 26.4893H235.881ZM48.5637 13.2446V20.1823H0V13.2446H48.5637ZM129.524 13.2446C130.78 15.4125 131.72 17.7486 132.315 20.1821H55.5014V13.2446H129.524ZM249.756 13.2444V20.1821H203.004L205.417 13.2444H249.756ZM183.093 13.2444L185.506 20.1821H138.754V13.2444H183.093ZM48.5637 4.80837e-05V6.93773H0V4.80837e-05H48.5637ZM106.588 2.3977e-05C113.203 -0.00888849 119.581 2.46712 124.458 6.93765H55.5014V2.3977e-05H106.588ZM249.756 0.00028223V6.93804H207.61L210.022 0.00028223H249.756ZM178.487 0.00028223L180.9 6.93804H138.754V0.00028223H178.487Z" fill="black"/>
</g>
<defs>
<clipPath id="clip0_1502_2802">
<rect width="249.756" height="100" fill="white"/>
</clipPath>
</defs>
</svg>
