<svg width="354" height="100" viewBox="0 0 354 100" fill="none" xmlns="http://www.w3.org/2000/svg">
<path d="M61.5347 30H64.3069C68.2079 30.2178 72.3663 30.9505 75.4753 33.505C77.9505 35.5248 79 38.9505 78.3861 42.0594C77.9307 44.3564 76.8614 46.4951 75.7129 48.5347C73.396 52.5545 70.5248 56.2376 67.8119 60.0198C67.3168 60.6337 66.9406 61.4059 66.9802 62.2178C67.0396 62.8515 67.5347 63.3663 68.1089 63.604C69.2178 64.0594 70.4653 63.9604 71.6337 63.901C75.3564 63.505 78.9406 62.3762 82.4851 61.2475C82.7426 61.0891 82.8416 61.3663 82.9406 61.5644C79.1782 64.0594 75.1188 66.1584 70.8614 67.703C68.505 68.4951 66.0099 69.2475 63.4951 68.9505C62.1881 68.8119 60.8614 68.0396 60.4455 66.7129C59.9307 65.0099 60.1287 63.1089 60.8614 61.4852C61.9901 58.9505 63.7525 56.7921 65.396 54.5941C68.1485 50.9901 70.9802 47.4059 73.1386 43.3861C73.8713 41.9802 74.6238 40.2376 73.9109 38.6733C73.2574 37.2277 71.7921 36.3762 70.4059 35.7228C67.9505 34.6337 65.3168 33.9604 62.7228 33.2277C62.3267 33.4917 61.9373 33.7492 61.5545 34C62.4455 34.6931 63.3564 35.3861 64.2475 36.0792C60.8416 36.6931 57.4356 37.3861 54.0693 38.2376C48.9604 39.5248 43.9703 41.2277 39.0198 43.0099C39.4951 43.9802 39.9901 44.9505 40.4455 45.9208C39.3168 47.1683 38.2079 48.4158 37.099 49.6436C39.7723 50.4554 42.6832 50.5743 45.4158 49.9604C47.7525 49.4257 49.9703 48.3168 51.7525 46.7129C51.2574 46.099 50.6436 45.604 49.9901 45.2079C52.1683 45.2673 54.1485 47.1485 54.1485 49.3663C53.7261 49.3663 53.3036 49.3663 52.8812 49.3663C52.7888 48.8911 52.6568 48.4224 52.4851 47.9604C50.0099 50.198 46.8218 51.604 43.5149 51.9604C40.604 52.297 37.6337 51.901 34.8812 50.8713C35.0792 52.5611 35.264 54.2508 35.4356 55.9406C33.8713 56.5545 32.4257 57.4257 31.1386 58.4951C30.1089 59.3861 29.0792 60.4158 28.703 61.7624C28.3069 62.9505 28.9406 64.297 29.9703 64.9307C31.2178 65.703 32.6832 66.0792 34.1485 66.2772C36.0495 66.5347 37.9901 66.5149 39.9109 66.3762C43.6733 66.099 47.4158 65.3861 51.0792 64.4951C51.4356 64.3564 51.6139 64.9505 51.2376 65.0495C48.3069 66.5545 45.2574 67.8218 42.0495 68.6337C39.0594 69.4257 35.9703 69.8218 32.8614 69.9208C29.7129 69.8218 26.3465 69.2079 23.8515 67.1485C21.9901 65.6436 21 63.2475 21 60.8713V60.7525C21.0594 58.2376 21.9109 55.802 23.1386 53.6436C24.7426 50.5743 26.7228 47.703 29.0594 45.1485C33.099 40.6733 38.1683 37.2277 43.6139 34.7327C49.2772 32.1782 55.3168 30.3366 61.5347 30Z" fill="#FF5A00"/>
<path fill-rule="evenodd" clip-rule="evenodd" d="M110.129 31.2477C114.617 31.2477 119.106 31.2411 123.594 31.2279C129.515 43.6635 135.436 56.0992 141.337 68.5348C136.861 68.5348 132.366 68.5348 127.891 68.5348C126.98 66.2906 126.063 64.0463 125.139 61.8021C118.96 61.8021 112.782 61.8021 106.604 61.8021C105.627 64.0463 104.644 66.2906 103.653 68.5348C99.6139 68.5348 95.5743 68.5348 91.5347 68.5348C94.3862 62.812 97.2574 57.1091 100.089 51.3863C103.436 44.6536 106.802 37.9605 110.129 31.2477ZM116.208 40.1586C114.188 44.6602 112.168 49.1553 110.149 53.6437C114.083 53.6437 118.01 53.6437 121.931 53.6437C120.03 49.1487 118.109 44.6536 116.208 40.1586ZM144.723 31.2477C148.644 31.2477 152.558 31.2477 156.465 31.2477C156.465 43.6701 156.465 56.0992 156.465 68.5348C152.558 68.5348 148.644 68.5348 144.723 68.5348C144.723 56.0992 144.723 43.6701 144.723 31.2477ZM163.832 31.2477C167.752 31.2477 171.673 31.2477 175.594 31.2477C175.594 33.7295 175.594 36.2114 175.594 38.6932C171.673 38.6932 167.752 38.6932 163.832 38.6932C163.832 36.2114 163.832 33.7295 163.832 31.2477ZM183 31.2873C186.842 31.2741 190.683 31.2741 194.525 31.2873C194.525 36.3434 194.525 41.3929 194.525 46.4358C196.743 44.0199 199.772 42.2972 203.079 41.9605C206.069 41.6833 209.238 42.1784 211.792 43.8417C212.96 44.5744 214.01 45.5447 214.881 46.614C216.683 49.1289 217.733 52.1982 217.812 55.2873C217.891 57.8615 217.535 60.515 216.287 62.7922C215.475 64.2972 214.327 65.6239 212.98 66.6536C210.683 68.2774 207.871 69.2477 205.04 69.1685C202.386 69.1487 199.693 68.416 197.515 66.8714C196.327 66.0397 195.317 65.01 194.406 63.8813C194.406 65.4391 194.406 66.9902 194.406 68.5348C190.604 68.5348 186.802 68.5348 183 68.5348C182.987 56.1124 182.987 43.6965 183 31.2873ZM198.782 48.1388C197.198 48.4952 195.832 49.6437 195.178 51.1289C194.644 52.4358 194.465 53.8615 194.426 55.2675C194.446 57.1487 194.723 59.1883 195.99 60.6932C196.842 61.8417 198.287 62.317 199.634 62.5348C201.396 62.7922 203.139 61.9803 204.307 60.6734C205.376 59.6635 205.792 58.1982 206.01 56.7724C206.188 55.2279 206.129 53.6041 205.634 52.119C205.218 50.7922 204.426 49.5249 203.238 48.7922C201.911 47.9803 200.267 47.7823 198.782 48.1388ZM260.96 31.2873C264.802 31.2741 268.644 31.2741 272.485 31.2873C272.485 36.3434 272.492 41.3929 272.505 46.4358C274.406 44.3764 276.901 42.7724 279.693 42.1784C282.287 41.6239 285.059 41.8417 287.554 42.7328C290.386 43.8021 292.802 45.9605 294.089 48.6932C295.792 51.9407 296.149 55.7625 295.475 59.3269C295.02 61.7625 293.772 64.0398 291.99 65.7625C289.97 67.6833 287.257 68.812 284.505 69.1091C281.653 69.3665 278.663 68.8516 276.208 67.3269C274.723 66.4358 273.455 65.2279 272.366 63.8813C272.386 65.4457 272.386 66.9902 272.386 68.5348C268.558 68.5348 264.736 68.5348 260.921 68.5348C260.921 64.02 260.921 59.4985 260.921 54.9704C260.98 47.0695 260.96 39.1685 260.96 31.2873ZM276.762 48.1388C275.059 48.4952 273.634 49.8021 273.04 51.4259C272.564 52.713 272.406 54.0595 272.386 55.4259C272.446 56.9902 272.624 58.614 273.455 59.9803C273.931 60.713 274.485 61.4259 275.297 61.8021C276.545 62.416 277.99 62.7724 279.376 62.4556C280.921 62.0992 282.188 60.9704 283.059 59.6833C284.188 57.4853 284.327 54.8714 283.713 52.4952C283.356 51.0893 282.604 49.7427 281.396 48.911C280.05 48.0001 278.327 47.7625 276.762 48.1388ZM231.812 42.2576C234.861 41.6635 238.01 41.6437 241.099 41.8021C244.069 42.0199 247.119 42.4754 249.752 43.9011C251.059 44.6338 252.248 45.6437 253 46.9308C253.871 48.3962 254.188 50.119 254.208 51.8021C254.208 57.3731 254.208 62.9374 254.208 68.4952C250.604 68.4952 247.007 68.4952 243.416 68.4952C243.416 67.2279 243.416 65.9605 243.416 64.6932C241.772 66.8714 239.218 68.1586 236.584 68.6536C233.634 69.2279 230.505 69.3071 227.594 68.4358C226.168 67.9803 224.762 67.3071 223.693 66.218C222.584 65.1091 222.01 63.5645 221.931 62.0001C221.752 59.7823 222.545 57.4853 224.188 55.9209C226.248 53.9605 229.059 53.0695 231.812 52.5744C235.554 51.9407 239.376 51.8615 243.158 51.7625C243.158 50.4754 242.802 49.1091 241.832 48.218C240.921 47.3665 239.614 47.0893 238.386 47.1091C237.337 47.0893 236.208 47.3269 235.436 48.0794C234.941 48.5744 234.624 49.2279 234.426 49.8813C230.861 49.8813 227.29 49.8813 223.713 49.8813C223.97 48.218 224.584 46.5744 225.733 45.3071C227.297 43.5843 229.574 42.713 231.812 42.2576ZM237.951 56.8516C236.703 57.0497 235.376 57.3467 234.426 58.2378C233.337 59.2477 233.396 61.2873 234.644 62.1388C235.574 62.7526 236.723 62.812 237.792 62.7724C239.277 62.713 240.881 62.3368 241.891 61.1685C243 59.9605 243.218 58.2378 243.198 56.6536C241.436 56.6536 239.693 56.6536 237.951 56.8516ZM309.891 42.2378C313.02 41.6437 316.228 41.6437 319.376 41.8219C322.248 42.0397 325.178 42.515 327.733 43.8813C328.98 44.5744 330.109 45.5447 330.881 46.7526C331.733 48.0595 332.109 49.6437 332.168 51.2081C332.168 56.9638 332.168 62.7262 332.168 68.4952C328.591 68.4952 325.013 68.4952 321.436 68.4952C321.436 67.2279 321.416 65.9407 321.436 64.6734C319.752 66.911 317.099 68.1982 314.386 68.6932C311.455 69.2279 308.386 69.3071 305.515 68.3962C304.267 68.0001 303.059 67.4457 302.05 66.5744C300.941 65.6239 300.208 64.2378 300.01 62.7922C299.733 60.9704 299.99 59.0298 300.96 57.4457C301.99 55.7625 303.673 54.5744 305.475 53.8021C308.188 52.6536 311.178 52.317 314.109 52.0596C316.446 51.8813 318.822 51.8219 321.178 51.7625C321.119 50.5546 320.842 49.2675 319.97 48.3566C319.079 47.4259 317.752 47.1091 316.525 47.1091C315.376 47.0893 314.149 47.3071 313.337 48.1784C312.881 48.6536 312.624 49.2675 312.426 49.8813C308.861 49.8813 305.277 49.8813 301.713 49.8813C301.95 48.2576 302.545 46.6536 303.653 45.4061C305.218 43.5843 307.594 42.713 309.891 42.2378ZM315.891 56.8714C314.703 57.0496 313.436 57.3467 312.505 58.1586C311.337 59.1487 311.356 61.2873 312.663 62.1388C313.653 62.7922 314.921 62.8318 316.069 62.7724C317.495 62.6734 318.98 62.2378 319.931 61.1289C320.98 59.9011 321.238 58.218 321.158 56.6536C319.416 56.6536 317.653 56.6734 315.891 56.8714ZM163.832 42.6734C167.752 42.6734 171.673 42.6734 175.594 42.6734C175.594 51.2939 175.594 59.9143 175.594 68.5348C171.673 68.5348 167.752 68.5348 163.832 68.5348C163.832 59.9143 163.832 51.2939 163.832 42.6734Z" fill="#FF5A00"/>
</svg>
