<svg width="300" height="100" viewBox="0 0 300 100" fill="none" xmlns="http://www.w3.org/2000/svg">
<path d="M180.822 27.9902H172.985V71.8183C180.107 72.0633 187.199 72.4226 194.262 72.8935V65.1719C189.794 64.8739 185.314 64.6213 180.822 64.4121V27.9902ZM243.101 27.9947H234.492L228.818 41.147L223.72 27.9947H215.24L224.352 51.4961L214.406 74.5517C217.157 74.8201 219.901 75.1065 222.643 75.4091L228.428 62.0038L234.157 76.7812C237.141 77.1648 240.117 77.5652 243.088 77.9892L243.101 77.9841L232.892 51.6548L243.101 27.9947ZM146.084 71.4353L153.921 71.4336V53.6055H164.545V45.8839H153.921V35.7862H167.962V27.9951H146.084V71.4353ZM116.82 35.7857H125.022V71.8944C127.629 71.7959 130.243 71.7147 132.858 71.6463V35.7857H141.06V27.9947H116.82V35.7857ZM90.0274 74.1386C97.2503 73.4822 104.507 72.9413 111.796 72.5215V64.7989C107.139 65.0681 102.495 65.3868 97.8641 65.7509V54.0605C100.902 54.0303 104.903 53.9376 108.447 53.9816V46.2593C105.616 46.2524 101.065 46.2988 97.8641 46.3398V35.7862H111.796V27.9951H90.0274V74.1386ZM74.6547 56.2872L64.4479 27.9947H57V77.9902C59.6072 77.6191 62.2194 77.2637 64.8367 76.9228V49.7354L73.9123 75.8065C76.7668 75.4755 79.6264 75.162 82.4916 74.8672V27.9947H74.6547V56.2872ZM200.723 73.3585C203.339 73.5587 205.951 73.7734 208.561 74.0056V27.9947H200.723V73.3585Z" fill="#ED1C24"/>
</svg>
