<svg width="300" height="100" viewBox="0 0 300 100" fill="none" xmlns="http://www.w3.org/2000/svg">
<path d="M67.002 20.0029V66.3494L72.9654 66.3678V44.297H87.3435V38.4633H72.9654V25.8338H91.6909V20L67.002 20.0029Z" fill="#000008"/>
<path d="M102.42 29.4109C104.568 29.4109 106.309 27.6696 106.309 25.5216C106.309 23.3737 104.568 21.6324 102.42 21.6324C100.272 21.6324 98.5305 23.3737 98.5305 25.5216C98.5305 27.6696 100.272 29.4109 102.42 29.4109Z" fill="#000008"/>
<path d="M99.393 35.2461V66.3599H105.356V35.2461H99.393Z" fill="#000008"/>
<path fill-rule="evenodd" clip-rule="evenodd" d="M127.473 34.3379C119.554 34.3379 114.028 41.0354 114.028 48.9872C114.028 56.9392 119.554 63.6366 127.473 63.6366C131.098 63.6366 134.086 62.233 136.261 59.9481V64.0904C136.261 69.2454 132.212 73.5541 126.927 73.5541C125.027 73.5541 123.14 72.8178 121.636 71.7815L118.648 76.9566C121.035 78.495 123.876 79.3879 126.927 79.3879C135.375 79.3879 142.224 72.5389 142.224 64.0904V35.2454H136.261V38.0265C134.086 35.7415 131.098 34.3379 127.473 34.3379ZM119.991 48.9872C119.991 44.0513 123.767 40.1717 128.121 40.1717C132.476 40.1717 136.252 44.0513 136.252 48.9872C136.252 53.9231 132.476 57.8028 128.121 57.8028C123.767 57.8028 119.991 53.9231 119.991 48.9872Z" fill="#000008"/>
<path d="M163.717 40.1717C160.191 40.1717 157.332 43.1598 157.332 46.6861V66.3592H151.369V35.2454H157.332V38.0956C159.079 35.8368 161.654 34.3379 165.013 34.3379C169.192 34.3379 172.399 36.4134 174.256 39.5897C176.322 36.5216 179.691 34.3379 183.746 34.3379C190.533 34.3379 194.758 39.8139 194.798 46.5888C194.798 46.6093 194.798 46.6297 194.798 46.6504V46.6536C194.798 46.6644 194.798 46.6752 194.798 46.6861V66.3592H188.835V46.6861C188.835 43.1598 185.976 40.1717 182.45 40.1717C178.923 40.1717 176.065 43.1598 176.065 46.6861V66.3592H170.102V46.6861C170.102 43.1598 167.243 40.1717 163.717 40.1717Z" fill="#000008"/>
<path fill-rule="evenodd" clip-rule="evenodd" d="M226.557 38.7724C223.904 36.0329 220.27 34.3379 216.056 34.3379C207.184 34.3379 200.888 41.8494 200.888 50.8021C200.888 59.755 207.184 67.2665 216.056 67.2665C220.27 67.2665 223.904 65.5716 226.557 62.832V66.3592H232.52V35.2454H226.557V38.7724ZM206.852 50.8021C206.852 44.8626 211.399 40.1717 216.704 40.1717C222.009 40.1717 226.557 44.8626 226.557 50.8021C226.557 56.7419 222.009 61.4327 216.704 61.4327C211.399 61.4327 206.852 56.7419 206.852 50.8021Z" fill="#000008"/>
</svg>
