<svg width="300" height="100" viewBox="0 0 300 100" fill="none" xmlns="http://www.w3.org/2000/svg">
<path d="M67.6101 22.5872L100.811 20.1368C104.888 19.7864 105.937 20.0211 108.499 21.8868L119.097 29.3522C120.846 30.6359 121.429 30.9854 121.429 32.3849V73.33C121.429 75.8962 120.496 77.4138 117.235 77.6459L78.6795 79.9794C76.2316 80.0963 75.0665 79.7468 73.7846 78.1126L65.98 67.964C64.5815 66.0959 64 64.6984 64 63.0632V26.6685C64 24.57 64.933 22.8196 67.6101 22.5872Z" fill="white"/>
<path fill-rule="evenodd" clip-rule="evenodd" d="M100.811 20.1368L67.6101 22.5872C64.933 22.8196 64 24.57 64 26.6685V63.0632C64 64.6984 64.5815 66.0959 65.98 67.964L73.7846 78.1126C75.0665 79.7468 76.2316 80.0963 78.6795 79.9794L117.235 77.6459C120.496 77.4138 121.429 75.8962 121.429 73.33V32.3849C121.429 31.0584 120.905 30.6752 119.361 29.5457C119.276 29.4835 119.188 29.4191 119.097 29.3522L108.499 21.8868C105.937 20.0211 104.888 19.7864 100.811 20.1368ZM79.5526 31.7133C76.405 31.9263 75.6898 31.9747 73.9023 30.5193L69.3567 26.9032C68.8931 26.4356 69.1256 25.8523 70.2896 25.7366L102.206 23.4034C104.885 23.1696 106.282 24.1043 107.331 24.9205L112.805 28.887C113.038 29.0031 113.62 29.7022 112.92 29.7022L79.9591 31.6859C79.8216 31.6951 79.6885 31.7041 79.5595 31.7129L79.555 31.7131L79.5526 31.7133ZM75.8812 72.9795V38.2186C75.8812 36.7025 76.3472 36.002 77.7442 35.8842L115.599 33.6687C116.883 33.5521 117.465 34.3691 117.465 35.8842V70.412C117.465 71.9295 117.231 73.2145 115.134 73.33L78.9091 75.4309C76.8127 75.5464 75.8812 74.8477 75.8812 72.9795ZM111.642 40.0832C111.874 41.1341 111.642 42.1841 110.592 42.3022L108.846 42.6507V68.3134C107.331 69.1297 105.934 69.5965 104.769 69.5965C102.905 69.5965 102.438 69.0128 101.041 67.264L89.6246 49.2999V66.6807L93.2373 67.4979C93.2373 67.4979 93.2373 69.5965 90.3227 69.5965L82.2874 70.0636C82.0539 69.5965 82.2874 68.431 83.1024 68.1973L85.1993 67.615V44.6345L82.2879 44.4006C82.0544 43.3498 82.6359 41.8345 84.2678 41.7169L92.8878 41.1346L104.769 59.3324V43.2339L101.74 42.8854C101.507 41.6007 102.438 40.6679 103.603 40.5522L111.642 40.0832Z" fill="#000008"/>
<path d="M199.683 62.5033H195.704V44.8772H199.683V62.5033Z" fill="#000008"/>
<path d="M200.07 39.5604C200.07 40.8977 199.007 41.961 197.685 41.961C196.38 41.961 195.301 40.8977 195.301 39.5604C195.301 38.223 196.38 37.1436 197.685 37.1436C199.007 37.1436 200.07 38.223 200.07 39.5604Z" fill="#000008"/>
<path d="M146.867 46.6814V62.503H142.855V39.2539H146.465L157.872 55.0594H158.146V39.2539H162.141V62.503H158.548L147.141 46.6814H146.867Z" fill="#000008"/>
<path fill-rule="evenodd" clip-rule="evenodd" d="M181.905 53.6901C181.905 59.4097 178.698 62.8576 173.43 62.8576C168.145 62.8576 164.955 59.4097 164.955 53.6901C164.955 48.0026 168.194 44.5225 173.43 44.5225C178.682 44.5225 181.905 47.9865 181.905 53.6901ZM169.047 53.6901C169.047 57.3796 170.642 59.5063 173.43 59.5063C176.217 59.5063 177.796 57.3796 177.796 53.6901C177.796 50.0166 176.201 47.8737 173.43 47.8737C170.642 47.8737 169.047 50.0166 169.047 53.6901Z" fill="#000008"/>
<path d="M185.555 40.5586V44.9893H182.768V48.1795H185.555V57.7981C185.555 61.2138 187.166 62.5832 191.21 62.5832C191.983 62.5832 192.725 62.5026 193.305 62.3898V59.2642L193.265 59.2681C192.804 59.3143 192.5 59.3448 191.951 59.3448C190.276 59.3448 189.534 58.5714 189.534 56.8314V48.1795H193.305V44.9893H189.534V40.5586H185.555Z" fill="#000008"/>
<path fill-rule="evenodd" clip-rule="evenodd" d="M210.598 62.8576C215.866 62.8576 219.073 59.4097 219.073 53.6901C219.073 47.9865 215.85 44.5225 210.598 44.5225C205.362 44.5225 202.123 48.0026 202.123 53.6901C202.123 59.4097 205.313 62.8576 210.598 62.8576ZM210.598 59.5063C207.811 59.5063 206.215 57.3796 206.215 53.6901C206.215 50.0166 207.811 47.8737 210.598 47.8737C213.369 47.8737 214.964 50.0166 214.964 53.6901C214.964 57.3796 213.385 59.5063 210.598 59.5063Z" fill="#000008"/>
<path d="M225.447 62.5031H221.451V44.877H225.302V47.6965H225.576C226.414 45.7309 228.186 44.5225 230.812 44.5225C234.744 44.5225 236.887 46.8909 236.887 51.0961V62.5031H232.891V52.0466C232.891 49.3561 231.763 48.0026 229.33 48.0026C226.945 48.0026 225.447 49.6459 225.447 52.24V62.5031Z" fill="#000008"/>
</svg>
