<svg width="674" height="100" viewBox="0 0 674 100" fill="none" xmlns="http://www.w3.org/2000/svg">
<g clip-path="url(#clip0_1502_2846)">
<path d="M282.411 62.3687H292.285V89.61H309.517V98.3514H282.411V62.3687ZM319.728 80.4624V80.3568C319.728 70.0203 327.961 61.6488 338.951 61.6488C349.938 61.6488 358.069 69.9312 358.069 80.2511V80.3568C358.069 90.6899 349.836 99.0647 338.846 99.0647C327.855 99.0647 319.725 90.7923 319.725 80.4624H319.728ZM348.003 80.4624V80.3568C348.003 75.1621 344.295 70.6412 338.846 70.6412C333.397 70.6412 329.847 75.0564 329.847 80.2511V80.3568C329.847 85.5481 333.552 90.0723 338.951 90.0723C344.347 90.0723 348.003 85.6538 348.003 80.4624ZM370.146 82.5693V62.3819H380.162V82.3778C380.162 87.5691 382.747 90.0294 386.717 90.0294C390.683 90.0294 393.272 87.6616 393.272 82.6255V62.3687H403.285V82.3118C403.285 93.9328 396.73 99.0086 386.611 99.0086C376.493 99.0086 370.132 93.8139 370.132 82.5627M418.387 62.3786H432.121C444.829 62.3786 452.203 69.7793 452.203 80.152V80.2577C452.203 90.6271 444.723 98.3448 431.913 98.3448H418.387V62.3687V62.3819V62.3786ZM432.263 89.5109C438.168 89.5109 442.071 86.2251 442.071 80.4162V80.3105C442.071 74.5512 438.158 71.2125 432.263 71.2125H428.244V89.5109H432.263ZM466.545 62.3687H495.015V71.1134H476.403V77.2228H493.232V85.4952H476.403V98.3514H466.545V62.3687ZM508.74 62.3687H518.61V89.61H535.845V98.3514H508.74V62.3687ZM561.62 62.1144H571.125L586.279 98.3448H575.705L573.103 91.9184H559.368L556.832 98.3448H546.453L561.607 62.1144H561.62ZM570.269 84.1611L566.3 73.9336L562.281 84.1611H570.269ZM598.99 62.3786H615.819C621.258 62.3786 625.029 63.8251 627.407 66.282C629.504 68.3328 630.557 71.12 630.557 74.6569V74.7625C630.557 80.2577 627.655 83.9101 623.233 85.8057L631.727 98.3448H620.333L613.167 87.447H608.848V98.3448H598.977V62.3687L598.99 62.3819V62.3786ZM615.367 79.6501C618.722 79.6501 620.657 78.0088 620.657 75.39V75.2876C620.657 72.4608 618.629 71.0275 615.314 71.0275H608.861V79.6666H615.376L615.367 79.6534V79.6501ZM644.794 62.3687H673.422V70.8492H654.562V76.2915H671.652V84.1644H654.562V89.8709H673.683V98.3514H644.794V62.3687ZM260.804 84.6796C259.424 87.8366 256.511 90.0723 252.647 90.0723C247.264 90.0723 243.546 85.5481 243.546 80.3568V80.2478C243.546 75.0531 247.159 70.6379 252.545 70.6379C256.603 70.6379 259.698 73.1609 261.012 76.6053H271.405C269.737 68.0488 262.3 61.6455 252.637 61.6455C241.66 61.6455 233.414 70.0203 233.414 80.3535V80.4591C233.414 90.7923 241.541 99.0614 252.535 99.0614C261.923 99.0614 269.271 92.9058 271.21 84.663H260.791L260.804 84.6763V84.6796Z" fill="black"/>
<path d="M173.991 43.0234C173.264 43.0234 172.548 43.0499 171.831 43.073C171.715 43.0792 171.601 43.1061 171.494 43.1522C171.109 43.2834 170.816 43.6001 170.715 43.9943L167.644 54.7237C166.319 59.3372 166.811 63.5972 169.037 66.7246C171.078 69.6174 174.473 71.3149 178.594 71.513L195.255 72.5235C195.75 72.55 196.179 72.7877 196.44 73.1807C196.717 73.6059 196.78 74.1361 196.609 74.6139C196.335 75.3967 195.628 75.9468 194.802 76.0208L177.491 77.0313C168.086 77.4672 157.968 85.1419 154.418 94.5008L153.169 97.8032C153.06 98.081 153.092 98.3942 153.255 98.6445C153.417 98.8948 153.69 99.0512 153.988 99.0647H213.609C214.322 99.0676 214.949 98.5947 215.142 97.9089C216.201 94.1026 216.734 90.1693 216.727 86.2185C216.727 62.3753 197.609 43.0499 174.017 43.0499" fill="#FBAD41"/>
<path d="M147.969 97.6776L149.072 93.7973C150.4 89.1839 149.908 84.9238 147.685 81.7965C145.638 78.9036 142.246 77.2062 138.122 77.0081L59.9711 75.9975C59.478 75.9885 59.019 75.7443 58.736 75.3404C58.458 74.9157 58.3945 74.3855 58.5643 73.9071C58.8407 73.1193 59.555 72.568 60.3872 72.5003L139.268 71.4898C148.633 71.0572 158.752 63.3792 162.302 54.0202L166.8 42.1317C166.981 41.6277 167.028 41.0839 166.932 40.5565C161.806 17.3672 141.305 0 116.795 0C94.2002 0 75.0299 14.7352 68.1511 35.2198C63.5198 31.6979 57.7196 30.0751 51.9331 30.6824C41.1013 31.7721 32.3831 40.5961 31.3065 51.5467C31.0278 54.2818 31.2289 57.0444 31.9009 59.7102C14.2002 60.2386 0 74.8945 0 92.9057C0 94.5337 0.115583 96.1387 0.350052 97.704C0.446603 98.4637 1.09348 99.0327 1.85924 99.0316H146.186C147.021 99.0178 147.747 98.4559 147.969 97.6512" fill="#F6821F"/>
</g>
<defs>
<clipPath id="clip0_1502_2846">
<rect width="673.684" height="100" fill="white"/>
</clipPath>
</defs>
</svg>
