<svg width="300" height="100" viewBox="0 0 300 100" fill="none" xmlns="http://www.w3.org/2000/svg">
<path fill-rule="evenodd" clip-rule="evenodd" d="M107.312 45.3369C107.617 45.3369 107.864 45.5842 107.864 45.8887V63.8877C107.864 63.9911 107.846 64.2168 107.685 64.3057C107.685 64.3057 103.768 67.0649 97.3107 67.0649C89.5122 67.0649 80.2578 64.6634 80.2578 48.5469C80.2578 32.4308 88.341 29.0781 96.2207 29.0781C103.061 29.0781 105.769 30.5932 106.213 30.9099C106.375 31.0265 106.423 31.1981 106.423 31.3408L105.106 36.9168C105.106 37.2214 104.789 37.563 104.445 37.4581C103.352 37.12 101.635 36.418 97.6485 36.418C93.0431 36.418 88.1374 37.7814 88.1374 48.1429C88.1374 58.5024 92.8485 59.7344 96.2207 59.7344C99.0793 59.7344 100.113 59.3822 100.113 59.3822V52.212H95.5086C95.204 52.212 94.9567 51.9643 94.9567 51.6598V45.8887C94.9567 45.5842 95.204 45.3369 95.5086 45.3369H107.312ZM168.144 31.0092V65.7872C168.143 66.0937 167.899 66.3433 167.595 66.3433H160.934C160.63 66.3433 160.383 66.0937 160.383 65.7872C160.383 65.7861 160.401 50.9113 160.401 50.9113H150.041V65.7872C150.041 66.0937 149.797 66.3433 149.492 66.3433H142.847C142.545 66.3433 142.298 66.0937 142.298 65.7872V31.0092C142.298 30.7023 142.545 30.4543 142.847 30.4543H149.492C149.797 30.4543 150.041 30.7023 150.041 31.0092V43.8533H160.401L160.399 31.0092C160.399 30.7023 160.645 30.4543 160.95 30.4543H167.596C167.9 30.4543 168.144 30.7023 168.144 31.0092ZM119.854 35.5729C119.854 37.9635 117.935 39.9029 115.568 39.9029C113.203 39.9029 111.283 37.9635 111.283 35.5729C111.283 33.18 113.203 31.246 115.568 31.246C117.935 31.246 119.854 33.18 119.854 35.5729ZM119.379 42.3972V65.4507C119.379 66.0166 119.218 66.3383 118.563 66.3383H112.594C112.049 66.3383 111.628 66.137 111.628 65.4617V42.4615C111.628 42.1566 111.9 41.8434 112.204 41.8434H118.829C119.133 41.8434 119.379 42.0927 119.379 42.3972ZM193.402 41.8956C193.706 41.8956 193.953 42.1449 193.953 42.4518L193.955 65.7974C193.955 66.1032 193.708 66.3527 193.405 66.3527L189.148 66.3714C188.934 66.3714 188.738 66.2202 188.662 66.0704C188.586 65.9202 188.419 64.6535 188.419 64.6535C188.419 64.6535 184.912 67.057 180.561 67.057C175.259 67.057 171.403 65.3649 171.403 58.4485V42.4518C171.403 42.1449 171.652 41.8956 171.954 41.8956H178.647C178.95 41.8956 179.195 42.1449 179.195 42.4518V57.3226C179.195 59.6512 179.826 60.7303 182.205 60.7303C184.583 60.7303 186.258 59.5042 186.258 59.5042V42.4518C186.258 42.1449 186.504 41.8956 186.808 41.8956H193.402ZM211.428 41.1144C215.177 41.1144 220.724 42.5153 220.724 53.2351C220.724 63.9549 217.251 67.0272 211.193 67.0272C206.034 67.0272 203.31 64.4448 203.31 64.4448C203.31 64.4448 203.144 65.8612 203.029 66.048C202.912 66.236 202.755 66.3436 202.546 66.3436H197.921C197.618 66.3436 197.372 66.094 197.372 65.7871V31.0091C197.372 30.7022 197.618 30.4542 197.921 30.4542H204.586C204.889 30.4542 205.135 30.7022 205.135 31.0091V42.7858C205.135 42.7858 207.683 41.1144 211.428 41.1144ZM208.827 60.7091C212.027 60.8058 213.06 59.6265 213.06 53.6523C213.06 47.9867 210.771 47.2695 208.397 47.482C206.518 47.6497 204.988 48.5881 204.988 48.5881V59.6016C204.988 59.6016 206.54 60.6393 208.827 60.7091ZM138.48 41.8402C138.784 41.8402 139.03 42.0875 139.03 42.3944V47.7516C139.03 48.059 138.784 48.3074 138.48 48.3074H133.494C133.494 48.3074 133.495 56.6124 133.495 58.0854C133.495 59.5591 134.324 60.6975 136.774 60.6975C137.538 60.6975 138.281 60.5793 138.573 60.5793C138.864 60.5793 139.124 60.8278 139.124 61.1347L139.118 65.8399C139.118 66.0613 139.003 66.2657 138.806 66.3383C138.479 66.4587 136.502 66.9895 134.848 66.9895C131.232 66.9895 125.871 66.2388 125.871 58.5967V48.3074H122.387C122.084 48.3074 121.838 48.059 121.838 47.7516V43.4746C121.838 43.2224 122.007 43.0109 122.236 42.9447C122.466 42.8779 125.871 42.0563 125.871 42.0563V35.2503C125.871 34.9964 126.013 34.8798 126.277 34.8798H133.07C133.359 34.8798 133.487 35.0046 133.487 35.2538C133.487 35.2554 133.495 41.8402 133.495 41.8402H138.48Z" fill="#24292F"/>
</svg>
