<svg width="300" height="100" viewBox="0 0 300 100" fill="none" xmlns="http://www.w3.org/2000/svg">
<path fill-rule="evenodd" clip-rule="evenodd" d="M117.741 52.1598V31.7813H119.659C121.221 31.7813 122.488 33.0688 122.488 34.657V43.7179C125.561 40.9306 128.175 39.8148 131.658 39.7432C138.339 39.6043 144.138 44.6484 144.689 51.4187C145.348 59.5069 139.561 65.5952 132.023 65.5952C123.747 65.5952 117.741 60.3785 117.741 52.1598ZM122.409 53.7597C122.877 57.9701 126.833 61.4479 131.004 61.5153C136.438 61.5995 140.141 57.9996 140.141 52.6734C140.141 47.3472 136.521 43.8315 131.24 43.8315C125.594 43.8189 121.767 47.9872 122.409 53.7597Z" fill="#3B3E4F"/>
<path fill-rule="evenodd" clip-rule="evenodd" d="M152.61 40.2522V43.8816C155.596 40.5133 157.365 39.6081 160.861 39.6081C161.877 39.6092 162.893 39.6922 163.897 39.8565V44.6774C162.825 44.378 161.719 44.2279 160.608 44.2311C158.077 44.2311 155.952 45.0732 154.395 46.6647C153.028 48.0584 152.622 49.1489 152.622 51.3383V64.7611H147.702V40.2522H152.61Z" fill="#3B3E4F"/>
<path fill-rule="evenodd" clip-rule="evenodd" d="M165.067 48.3573C165.319 45.97 165.775 44.6774 166.786 43.4353C168.811 40.9091 172.456 39.6081 177.617 39.6081C181.717 39.6081 184.704 40.2565 186.779 41.6459C188.502 42.7869 189.21 44.4795 189.21 47.4605V58.3444C189.21 60.7317 189.819 61.5738 191.488 61.5275C191.861 61.5141 192.233 61.4804 192.603 61.4265V64.7064C191.773 64.9946 190.899 65.1287 190.022 65.1022C186.936 65.1022 185.52 64.159 184.559 61.4222C181.523 64.2559 178.383 65.4474 173.881 65.4474C167.858 65.4474 164.164 62.6643 164.164 58.1381C164.137 55.5571 165.631 53.2099 167.958 52.1762C169.78 51.3804 170.894 51.132 176.105 50.5846C180.558 50.1383 181.32 50.0373 182.583 49.6373C183.95 49.191 184.559 48.4457 184.559 47.2037C184.559 44.5679 182.384 43.3764 177.828 43.3764C173.52 43.3764 171.3 44.2437 170.41 46.4584C169.969 47.5909 168.895 48.3374 167.697 48.3447L165.067 48.3573ZM184.534 52.534C181.412 53.457 178.207 54.0566 174.966 54.3235C170.563 54.7698 169.196 55.6161 169.196 57.8518C169.196 60.336 171.222 61.6412 175.219 61.6412C178.507 61.6412 180.988 60.7991 182.761 59.157C184.178 57.8139 184.534 56.8708 184.534 54.5256V52.534Z" fill="#3B3E4F"/>
<path fill-rule="evenodd" clip-rule="evenodd" d="M204.478 64.7575H203.21C202.094 64.7646 201.072 64.1194 200.584 63.0986L189.969 40.2528H192.918C194.636 40.2389 196.201 41.2578 196.906 42.8507L203.989 59.2713L211.308 42.7875C212.024 41.2197 213.576 40.2221 215.276 40.2358H217.956L207.091 63.1238C206.598 64.1307 205.584 64.7645 204.478 64.7575Z" fill="#3B3E4F"/>
<path fill-rule="evenodd" clip-rule="evenodd" d="M221.284 53.9242C221.789 58.6483 225.426 61.5788 230.847 61.5788C233.925 61.5788 236.232 60.6483 237.661 58.7915C238.494 57.7267 239.76 57.1066 241.099 57.1073H243.953C241.467 62.6735 237.019 65.4103 230.388 65.4103C222.104 65.4103 216.52 60.2904 216.52 52.6359C216.52 44.9813 222.24 39.613 230.491 39.613C236.46 39.613 241.26 42.3456 243.195 46.9223C244.056 49.0275 244.408 50.8969 244.408 53.9285L221.284 53.9242ZM239.401 50.1349C238.286 45.8108 234.998 43.3729 230.442 43.3729C225.885 43.3729 222.597 45.8108 221.433 50.1349H239.401Z" fill="#3B3E4F"/>
<path fill-rule="evenodd" clip-rule="evenodd" d="M102.556 34.5809L103.921 31.1684C103.921 31.1684 102.184 29.2726 100.075 27.124C97.9662 24.9754 93.5003 26.2393 93.5003 26.2393L88.4141 20.3604H70.5506L65.4644 26.2393C65.4644 26.2393 60.9985 24.9754 58.8897 27.124C56.7808 29.2726 55.044 31.1684 55.044 31.1684L56.4086 34.5809L54.6719 39.6364C54.6719 39.6364 59.7797 59.3472 60.3783 61.7543C61.5568 66.4939 62.3631 68.3265 65.7125 70.7279C69.0619 73.1292 75.1405 77.3 76.1329 77.932C77.1254 78.5639 78.3659 79.6404 79.4823 79.6404C80.5988 79.6404 81.8393 78.5639 82.8318 77.932C83.8242 77.3 89.9027 73.1292 93.2522 70.7279C96.6016 68.3265 97.4079 66.4939 98.5864 61.7543C99.1848 59.3472 104.293 39.6364 104.293 39.6364L102.556 34.5809Z" fill="url(#paint0_linear_897_6698)"/>
<path fill-rule="evenodd" clip-rule="evenodd" d="M79.4854 57.2515C79.8254 57.2515 82.004 58.0351 83.7523 58.9567C85.5004 59.8785 86.7674 60.5303 87.1724 60.7885C87.5773 61.0468 87.3303 61.5338 86.9615 61.7994C86.5926 62.0651 81.6353 65.9761 81.1542 66.4083C80.673 66.8407 79.9661 67.5546 79.4854 67.5546C79.0047 67.5546 78.2976 66.8407 77.8165 66.4083C77.3353 65.9761 72.3781 62.0651 72.0092 61.7994C71.6403 61.5338 71.3934 61.0468 71.7983 60.7885C72.2034 60.5303 73.4703 59.8785 75.2186 58.9567C76.9666 58.0351 79.1453 57.2515 79.4854 57.2515ZM79.512 29.3961C79.6789 29.4008 80.6196 29.4474 81.9664 29.9048C83.4551 30.4103 85.0677 31.0423 85.8121 31.0423C86.5564 31.0423 92.0767 29.968 92.0767 29.968C92.0767 29.968 98.6187 38.0252 98.6187 39.7472C98.6187 41.4693 97.7958 41.9238 96.9683 42.819C96.1409 43.7142 92.5271 47.6239 92.0631 48.1259C91.599 48.628 90.6329 49.3892 91.2011 50.7594C91.7694 52.1296 92.6078 53.8731 91.6755 55.6415C90.7431 57.4099 89.146 58.5903 88.1225 58.3951C87.0991 58.1999 84.6956 56.9202 83.8117 56.3356C82.9278 55.7511 80.1265 53.3973 80.1265 52.4966C80.1265 51.5961 83.0222 49.9791 83.5572 49.6117C84.0923 49.2444 86.5324 47.8224 86.5824 47.2643C86.6323 46.706 86.6133 46.5424 85.8932 45.1632C85.1731 43.7839 83.8762 41.9435 84.0921 40.7189C84.3079 39.4945 86.3994 38.8577 87.892 38.2834C89.3844 37.7092 92.2581 36.6247 92.6169 36.4561C92.9761 36.2874 92.8833 36.1267 91.7957 36.0217C90.7084 35.9167 87.6225 35.4993 86.2312 35.8944C84.84 36.2895 82.4631 36.8906 82.2706 37.2094C82.0781 37.5281 81.9083 37.5389 82.106 38.6384C82.3036 39.738 83.3216 45.0142 83.4203 45.9514C83.5192 46.8885 83.7125 47.5081 82.7207 47.7391C81.7287 47.9702 80.0591 48.3713 79.4854 48.3713C78.9116 48.3713 77.2419 47.9702 76.2501 47.7391C75.2582 47.5081 75.4515 46.8885 75.5503 45.9514C75.6492 45.0142 76.667 39.738 76.8648 38.6384C77.0624 37.5389 76.8926 37.5281 76.7002 37.2094C76.5076 36.8906 74.1307 36.2895 72.7394 35.8944C71.3482 35.4993 68.2624 35.9167 67.1749 36.0217C66.0875 36.1267 65.9947 36.2874 66.3537 36.4561C66.7127 36.6247 69.5864 37.7092 71.0787 38.2834C72.5712 38.8577 74.6628 39.4945 74.8787 40.7189C75.0945 41.9435 73.7976 43.7839 73.0776 45.1632C72.3575 46.5424 72.3384 46.706 72.3883 47.2643C72.4382 47.8224 74.8785 49.2444 75.4135 49.6117C75.9485 49.9791 78.8442 51.5961 78.8442 52.4966C78.8442 53.3973 76.0429 55.7511 75.1591 56.3356C74.2752 56.9202 71.8717 58.1999 70.8482 58.3951C69.8248 58.5903 68.2276 57.4099 67.2953 55.6415C66.363 53.8731 67.2013 52.1296 67.7695 50.7594C68.3378 49.3892 67.3718 48.628 66.9076 48.1259C66.4436 47.6239 62.8297 43.7142 62.0023 42.819C61.1749 41.9238 60.352 41.4693 60.352 39.7472C60.352 38.0252 66.8941 29.968 66.8941 29.968C66.8941 29.968 72.4144 31.0423 73.1587 31.0423C73.903 31.0423 75.5157 30.4103 77.0043 29.9048C78.3512 29.4474 79.2919 29.4008 79.4588 29.3961H79.512Z" fill="white"/>
<path d="M93.5003 26.2393L88.4141 20.3604H70.5506L65.4644 26.2393C65.4644 26.2393 60.9985 24.9754 58.8897 27.124C58.8897 27.124 64.8448 26.5764 66.8917 29.9677C66.8917 29.9677 72.412 31.042 73.1563 31.042C73.9006 31.042 75.5133 30.4101 77.0019 29.9045C78.4906 29.399 79.483 29.3953 79.483 29.3953C79.483 29.3953 80.4754 29.399 81.964 29.9045C83.4527 30.4101 85.0653 31.042 85.8097 31.042C86.554 31.042 92.0743 29.9677 92.0743 29.9677C94.1212 26.5764 100.075 27.124 100.075 27.124C97.9662 24.9754 93.5003 26.2393 93.5003 26.2393Z" fill="url(#paint1_linear_897_6698)"/>
<defs>
<linearGradient id="paint0_linear_897_6698" x1="54.6719" y1="3026.18" x2="19028.3" y2="3026.18" gradientUnits="userSpaceOnUse">
<stop stop-color="#FF5500"/>
<stop offset="0.409877" stop-color="#FF5500"/>
<stop offset="0.581981" stop-color="#FF2000"/>
<stop offset="1" stop-color="#FF2000"/>
</linearGradient>
<linearGradient id="paint1_linear_897_6698" x1="409.142" y1="561.98" x2="15818.9" y2="561.98" gradientUnits="userSpaceOnUse">
<stop stop-color="#FF452A"/>
<stop offset="1" stop-color="#FF2000"/>
</linearGradient>
</defs>
</svg>
