<svg width="374" height="100" viewBox="0 0 374 100" fill="none" xmlns="http://www.w3.org/2000/svg">
<path d="M26.0275 27H48.1425V49.1154H26.0275V27Z" fill="#F25022"/>
<path d="M49.9122 27H72.0273V49.1154H49.9122V27Z" fill="#7FBA00"/>
<path d="M26.0273 50.8846H48.1424V73H26.0273V50.8846Z" fill="#00A4EF"/>
<path d="M49.9122 50.8844H72.0273V72.9998H49.9122V50.8844Z" fill="#FFB900"/>
<path d="M101.968 52.9691L100.68 56.5757H100.61C100.383 55.7265 99.9987 54.532 99.4003 53.0083L92.5021 35.7359H85.7779V63.2018H90.2184V46.3154C90.2184 45.2762 90.1923 44.0141 90.1486 42.5732C90.1311 41.842 90.0441 41.2615 90.0217 40.8181H90.1225C90.2921 41.6112 90.5019 42.3953 90.7511 43.1671L99.0076 63.2014H102.112L110.312 42.9816C110.49 42.5232 110.696 41.6236 110.875 40.8181H110.971C110.87 42.8181 110.774 44.6427 110.765 45.7498V63.2014H115.494V35.7359H109.032L101.968 52.9691Z" fill="#737373"/>
<path d="M119.957 63.2016H124.593V43.5208H119.957V63.2016Z" fill="#737373"/>
<path d="M122.324 35.1554C121.56 35.1554 120.892 35.4129 120.351 35.9281C119.8 36.4432 119.525 37.0938 119.525 37.8557C119.525 38.6112 119.8 39.2465 120.342 39.7527C120.883 40.2529 121.551 40.5037 122.324 40.5037C123.101 40.5037 123.77 40.2529 124.32 39.7527C124.861 39.2465 125.14 38.6112 125.14 37.8557C125.14 37.1181 124.87 36.4783 124.333 35.9478C123.8 35.4215 123.132 35.1554 122.324 35.1554Z" fill="#737373"/>
<path d="M140.985 43.3202C140.132 43.1402 139.263 43.048 138.392 43.0451C136.274 43.0451 134.379 43.5013 132.764 44.4012C131.153 45.3005 129.904 46.5838 129.052 48.2169C128.205 49.8474 127.773 51.7492 127.773 53.8777C127.773 55.7355 128.197 57.438 129.013 58.9427C129.838 60.4508 131.004 61.6303 132.48 62.4418C133.956 63.2608 135.654 63.6755 137.545 63.6755C139.745 63.6755 141.614 63.2366 143.124 62.372L143.195 62.337V58.0909L142.998 58.2327C142.303 58.7344 141.538 59.1324 140.728 59.4142C139.911 59.7023 139.164 59.8419 138.51 59.8419C136.689 59.8419 135.226 59.2768 134.174 58.154C133.117 57.0341 132.58 55.4559 132.58 53.476C132.58 51.4764 133.131 49.8627 134.248 48.6682C135.344 47.4793 136.807 46.8787 138.584 46.8787C140.108 46.8787 141.592 47.3916 142.998 48.4136L143.195 48.5551V44.0821L143.124 44.047C142.596 43.7521 141.872 43.508 140.985 43.3202Z" fill="#737373"/>
<path d="M156.24 43.178C155.07 43.178 154.031 43.552 153.145 44.2855C152.359 44.9339 151.796 45.8223 151.363 46.9246H151.315V43.5214H146.687V63.2022H151.316V53.1356C151.316 51.4174 151.7 50.0161 152.468 48.953C153.215 47.9029 154.227 47.3699 155.463 47.3699C155.878 47.3699 156.341 47.4401 156.852 47.5774C157.353 47.7107 157.716 47.8611 157.93 48.0142L158.127 48.1538V43.484L158.057 43.4493C157.624 43.2679 157.009 43.178 156.24 43.178Z" fill="#737373"/>
<path d="M172.5 58.1999C171.627 59.2895 170.317 59.8416 168.606 59.8416C166.907 59.8416 165.563 59.2809 164.624 58.1693C163.663 57.0494 163.183 55.4555 163.183 53.4361C163.183 51.3476 163.663 49.7145 164.624 48.5794C165.563 47.4483 166.89 46.8787 168.567 46.8787C170.19 46.8787 171.488 47.4244 172.413 48.5047C173.343 49.5921 173.819 51.2095 173.819 53.323C173.819 55.4555 173.373 57.1025 172.5 58.1999ZM168.806 43.041C165.572 43.041 162.995 43.9947 161.157 45.8723C159.319 47.7425 158.385 50.3431 158.385 53.5873C158.385 56.6695 159.297 59.1476 161.087 60.9551C162.878 62.7602 165.323 63.6755 168.34 63.6755C171.479 63.6755 174.016 62.7147 175.853 60.8087C177.683 58.9076 178.618 56.3406 178.618 53.17C178.618 50.04 177.749 47.542 176.02 45.7499C174.299 43.9507 171.872 43.041 168.806 43.041Z" fill="#737373"/>
<path d="M188.886 51.6507C187.424 51.0658 186.489 50.5764 186.105 50.2057C185.734 49.8433 185.546 49.3367 185.546 48.6925C185.546 48.1187 185.774 47.6644 186.263 47.2871C186.743 46.9134 187.411 46.726 188.249 46.726C189.034 46.726 189.838 46.8459 190.628 47.0903C191.414 47.333 192.121 47.6514 192.703 48.053L192.89 48.1818V43.9007L192.812 43.8723C192.287 43.6386 191.571 43.4423 190.716 43.2806C189.86 43.1235 189.074 43.0447 188.406 43.0447C186.193 43.0447 184.367 43.6103 182.979 44.7219C181.572 45.8414 180.857 47.3106 180.857 49.09C180.857 50.0157 181.014 50.8321 181.315 51.5286C181.621 52.227 182.092 52.8452 182.721 53.3626C183.332 53.8732 184.289 54.4081 185.564 54.9542C186.633 55.3925 187.424 55.7616 187.934 56.0561C188.432 56.3421 188.777 56.6303 188.978 56.9121C189.17 57.1917 189.271 57.5646 189.271 58.0274C189.271 59.353 188.279 59.9965 186.245 59.9965C185.485 59.9965 184.62 59.8393 183.677 59.5295C182.741 59.2198 181.856 58.7709 181.053 58.198L180.857 58.0562V62.5688L180.927 62.6035C181.595 62.9114 182.428 63.1686 183.42 63.3653C184.402 63.5747 185.297 63.6755 186.065 63.6755C188.472 63.6755 190.401 63.1055 191.799 61.9876C193.222 60.8591 193.938 59.3552 193.938 57.5149C193.938 56.1894 193.549 55.052 192.789 54.1326C192.025 53.2207 190.716 52.3887 188.886 51.6507Z" fill="#737373"/>
<path d="M210.071 58.1999C209.197 59.2895 207.888 59.8416 206.18 59.8416C204.478 59.8416 203.133 59.2809 202.19 58.1693C201.234 57.0494 200.754 55.4555 200.754 53.4361C200.754 51.3476 201.234 49.7145 202.19 48.5794C203.133 47.4483 204.461 46.8787 206.137 46.8787C207.77 46.8787 209.058 47.4244 209.984 48.5047C210.918 49.5921 211.389 51.2095 211.389 53.323C211.389 55.4555 210.944 57.1025 210.071 58.1999ZM206.386 43.041C203.142 43.041 200.565 43.9947 198.727 45.8723C196.889 47.7425 195.955 50.3431 195.955 53.5873C195.955 56.6695 196.867 59.1476 198.658 60.9551C200.448 62.7602 202.893 63.6755 205.906 63.6755C209.058 63.6755 211.586 62.7147 213.424 60.8087C215.262 58.9076 216.188 56.3406 216.188 53.17C216.188 50.04 215.319 47.542 213.59 45.7499C211.869 43.9507 209.442 43.041 206.386 43.041Z" fill="#737373"/>
<path d="M240.878 47.2934V43.521H236.189V37.6482L236.032 37.6968L231.626 39.0432L231.538 39.0697V43.521H224.592V41.0406C224.592 39.8861 224.854 39.004 225.356 38.4146C225.867 37.8338 226.588 37.5392 227.509 37.5392C228.168 37.5392 228.858 37.6923 229.544 38.0021L229.714 38.0768V34.1006L229.635 34.0745C228.993 33.8393 228.12 33.7251 227.028 33.7251C225.662 33.7251 224.422 34.02 223.339 34.6116C222.252 35.2014 221.396 36.0413 220.798 37.1178C220.204 38.1854 219.903 39.4232 219.903 40.7946V43.521H216.637V47.2934H219.903V63.2015H224.592V47.2934H231.539V57.4033C231.539 61.5624 233.503 63.6755 237.372 63.6755C238.009 63.6755 238.686 63.6012 239.367 63.4572C240.061 63.306 240.538 63.1578 240.812 62.9962L240.878 62.9614V59.1477L240.69 59.2768C240.437 59.4422 240.114 59.584 239.747 59.6844C239.367 59.7912 239.062 59.8416 238.817 59.8416C237.909 59.8416 237.24 59.5993 236.826 59.1193C236.398 58.6303 236.189 57.7811 236.189 56.5866V47.2934H240.878Z" fill="#737373"/>
<path d="M266.735 52.8799L262.915 41.9059C262.801 41.5487 262.679 40.9729 262.553 40.1801H262.475C262.359 40.9091 262.231 41.4838 262.09 41.9059L258.312 52.8799H266.735ZM275.424 63.6042H270.417L267.942 56.6014H257.122L254.744 63.6042H249.756L260.058 36.0932H265.199L275.424 63.6042Z" fill="#737373"/>
<path d="M292.423 45.8195L281.815 60.1317H292.384V63.6042H275.579V61.9348L286.418 47.4319H276.614V43.959H292.422L292.423 45.8195Z" fill="#737373"/>
<path d="M312.512 63.6042H308.061V60.496H307.984C306.692 62.8752 304.684 64.0649 301.96 64.0649C297.318 64.0649 294.996 61.2769 294.996 55.7005V43.9597H299.447V55.2398C299.447 58.7701 300.809 60.5349 303.533 60.5349C304.85 60.5349 305.934 60.0489 306.784 59.0769C307.636 58.1053 308.061 56.8324 308.061 55.2587V43.9593H312.512V63.6042Z" fill="#737373"/>
<path d="M328.914 48.199C328.377 47.7768 327.604 47.5665 326.594 47.5665C325.276 47.5665 324.177 48.1604 323.294 49.351C322.411 50.5396 321.971 52.1572 321.971 54.2043V63.6041H317.52V43.9593H321.971V48.0069H322.046C322.48 46.6257 323.149 45.5483 324.052 44.7755C324.954 44.0013 325.96 43.6143 327.073 43.6143C327.878 43.6143 328.493 43.7356 328.914 43.979V48.199Z" fill="#737373"/>
<path d="M343.264 51.8442C343.251 50.2452 342.874 49.0012 342.132 48.1127C341.39 47.2242 340.368 46.779 339.063 46.779C337.784 46.779 336.7 47.2464 335.811 48.1791C334.923 49.114 334.376 50.3353 334.172 51.8445L343.264 51.8442ZM347.563 54.9902H334.171C334.221 56.8058 334.782 58.2067 335.85 59.1917C336.919 60.177 338.385 60.6686 340.253 60.6686C342.351 60.6686 344.275 60.0427 346.027 58.7892V62.3767C344.236 63.5015 341.869 64.0647 338.93 64.0647C336.037 64.0647 333.771 63.1721 332.127 61.3883C330.484 59.6042 329.662 57.0937 329.662 53.8579C329.662 50.8017 330.566 48.3108 332.376 46.3861C334.187 44.4607 336.435 43.4987 339.121 43.4987C341.806 43.4987 343.885 44.362 345.357 46.0882C346.827 47.8152 347.563 50.2136 347.563 53.2821V54.9902Z" fill="#737373"/>
</svg>
