<svg width="356" height="100" viewBox="0 0 356 100" fill="none" xmlns="http://www.w3.org/2000/svg">
<g clip-path="url(#clip0_1351_524)">
<path opacity="0.54" d="M106.646 76.1497H100V24.8223H130.185V31.1283H106.646V47.9798H127.877V54.1402H106.646V76.1497ZM142.682 32.2092C141.098 33.7887 138.61 34.0368 136.74 32.8018C134.871 31.5668 134.141 29.1928 134.998 27.1323C135.854 25.0718 138.058 23.8991 140.261 24.3317C142.464 24.7643 144.052 26.6816 144.053 28.9105C144.075 30.1519 143.576 31.3465 142.677 32.2092H142.682ZM142.682 76.1497H136.036V41.0242H142.682V76.1497ZM157.267 76.1497H150.621V41.0242H156.973V46.7589H157.261C158.029 44.738 159.502 43.0584 161.414 42.0266C163.239 40.8636 165.35 40.2186 167.518 40.1617C169.221 40.1137 170.915 40.407 172.5 41.0242L169.973 47.1846C168.833 46.8081 167.635 46.6374 166.435 46.6805C163.998 46.6928 161.679 47.7211 160.043 49.5143C158.188 51.4035 157.261 53.877 157.261 56.9348L157.267 76.1497ZM190.713 77.2698C185.368 77.2698 181.024 75.5019 177.68 71.9662C174.336 68.4305 172.662 63.9708 172.658 58.5869C172.56 53.7395 174.3 49.0323 177.533 45.3981C180.63 41.7806 185.21 39.7502 189.991 39.8761C195.238 39.8761 199.439 41.573 202.595 44.9668C205.751 48.3607 207.327 52.9007 207.323 58.5869L207.25 59.8078H179.293C179.485 63.3435 180.678 66.1437 182.871 68.2084C184.921 70.2064 187.687 71.3143 190.561 71.2886C195.326 71.2886 198.552 69.2818 200.237 65.2682L206.161 67.7044C204.96 70.4816 202.98 72.8573 200.457 74.548C197.805 76.3625 194.557 77.2698 190.713 77.2698ZM200.248 54.3083C200.105 52.2996 199.178 50.388 197.467 48.5735C195.755 46.7589 193.211 45.8703 189.833 45.9077C187.49 45.867 185.214 46.6844 183.44 48.2038C181.582 49.8204 180.281 51.9751 179.722 54.3643L200.248 54.3083ZM231.336 77.2698C228.821 77.3193 226.334 76.7416 224.103 75.5897C222.143 74.6086 220.485 73.1232 219.301 71.2886H219.014V76.1497H212.655V24.8223H219.301V41.0242L219.014 45.8965H219.301C220.485 44.0619 222.143 42.5764 224.103 41.5954C226.331 40.4301 228.818 39.8389 231.336 39.8761C235.91 39.8761 239.859 41.6682 243.184 45.2524C246.509 48.8367 248.17 53.2815 248.166 58.5869C248.166 63.8924 246.505 68.3372 243.184 71.9214C239.863 75.5057 235.913 77.2885 231.336 77.2698ZM230.253 71.2494C233.28 71.2733 236.173 70.0069 238.197 67.7716C240.412 65.453 241.52 62.3821 241.52 58.5589C241.52 54.7357 240.412 51.6649 238.197 49.3463C236.15 47.1377 233.266 45.8781 230.243 45.8717C227.22 45.8653 224.331 47.1127 222.275 49.3127C220.086 51.6051 218.991 54.6872 218.991 58.5589C218.991 62.4307 220.097 65.5221 222.308 67.8332C224.345 70.0602 227.245 71.3141 230.275 71.2774L230.253 71.2494ZM265.087 77.2698C261.325 77.2698 258.184 76.1945 255.664 74.044C253.144 71.8934 251.88 69.0503 251.873 65.5146C251.873 61.6914 253.366 58.6933 256.353 56.5204C259.339 54.3475 263.022 53.261 267.4 53.261C271.3 53.261 274.498 53.9778 276.991 55.4115V54.4091C277.087 52.0481 276.104 49.7704 274.317 48.2094C272.497 46.6538 270.156 45.8325 267.755 45.9077C265.918 45.8842 264.109 46.3545 262.519 47.2686C261.03 48.0873 259.888 49.4116 259.303 50.9984L253.238 48.4167C254.058 46.3072 255.672 44.3508 258.079 42.5475C260.486 40.7441 263.665 39.8481 267.614 39.8593C272.128 39.8593 275.889 41.166 278.898 43.7795C281.907 46.3931 283.401 50.0968 283.378 54.8907V76.1497H277.003V71.2774H276.715C274.063 75.2723 270.187 77.2698 265.087 77.2698ZM266.17 71.2494C268.963 71.2397 271.644 70.1581 273.651 68.2308C275.791 66.4404 277.029 63.8065 277.036 61.0287C275.156 59.4979 272.335 58.7325 268.573 58.7325C265.346 58.7325 262.914 59.4251 261.278 60.8103C259.751 61.9754 258.847 63.771 258.824 65.6826C258.793 67.3461 259.652 68.9016 261.081 69.7709C262.584 70.774 264.359 71.2994 266.17 71.2774V71.2494ZM302.928 77.2698C298.978 77.2698 295.717 76.314 293.145 74.4024C290.641 72.5673 288.691 70.0887 287.502 67.2339L293.427 64.7978C295.307 69.1959 298.504 71.395 303.018 71.395C304.811 71.4679 306.584 70.9929 308.096 70.0341C309.343 69.2655 310.096 67.9069 310.082 66.4499C310.082 64.1575 308.468 62.6043 305.241 61.7904L298.093 60.071C295.74 59.4533 293.549 58.3418 291.666 56.8116C289.662 55.2604 288.533 52.8469 288.631 50.3264C288.631 47.22 290.015 44.6999 292.783 42.7659C295.679 40.7927 299.129 39.7775 302.64 39.8649C305.572 39.8184 308.463 40.5512 311.013 41.9874C313.42 43.3441 315.282 45.4847 316.283 48.047L310.511 50.388C309.213 47.2816 306.516 45.7285 302.42 45.7285C300.678 45.671 298.953 46.0935 297.438 46.9494C296.197 47.5878 295.418 48.8601 295.418 50.248C295.418 52.2566 296.983 53.6194 300.112 54.3363L307.114 55.9884C310.436 56.7351 312.892 58.0418 314.483 59.9086C316.024 61.6525 316.871 63.8949 316.864 66.2147C316.894 69.3074 315.448 72.232 312.965 74.1C310.366 76.2132 307.02 77.2698 302.928 77.2698ZM338.676 77.2698C333.331 77.2698 328.987 75.5019 325.643 71.9662C322.299 68.4305 320.625 63.9614 320.621 58.5589C320.523 53.7115 322.263 49.0043 325.496 45.37C328.604 41.7617 333.19 39.7422 337.971 39.8761C343.237 39.8761 347.438 41.573 350.575 44.9668C353.712 48.3607 355.288 52.9007 355.303 58.5869L355.23 59.8078H327.251C327.443 63.3435 328.635 66.1437 330.828 68.2084C332.884 70.2065 335.657 71.3106 338.535 71.2774C343.301 71.2774 346.526 69.2706 348.211 65.257L354.135 67.6932C352.935 70.4706 350.955 72.8463 348.431 74.5368C345.779 76.3588 342.528 77.2698 338.676 77.2698ZM348.211 54.3083C348.068 52.2996 347.141 50.388 345.429 48.5735C343.718 46.7589 341.177 45.8703 337.807 45.9077C335.464 45.8675 333.189 46.6849 331.415 48.2038C329.556 49.8204 328.256 51.9751 327.696 54.3643L348.211 54.3083Z" fill="black"/>
<path d="M63.4905 22.1656C63.3491 21.3337 62.7554 20.6501 61.9514 20.3936C61.1475 20.1371 60.2677 20.3505 59.6706 20.9468L47.9514 32.6942L38.7374 15.1521C38.3472 14.4104 37.5781 13.946 36.74 13.946C35.9019 13.946 35.1328 14.4104 34.7426 15.1521L29.704 24.7442L17.0651 1.17037C16.6067 0.314133 15.652 -0.152844 14.6947 0.0109723C13.7374 0.174788 12.9922 0.932658 12.8446 1.89259L0.628906 80.0901L33.2982 98.4052C35.3496 99.5506 37.8483 99.5506 39.8997 98.4052L72.8511 80.0901L63.4905 22.1656Z" fill="url(#paint0_linear_1351_524)"/>
<mask id="mask0_1351_524" style="mask-type:luminance" maskUnits="userSpaceOnUse" x="0" y="-1" width="73" height="101">
<path d="M63.4905 22.1656C63.3491 21.3337 62.7554 20.6501 61.9514 20.3936C61.1475 20.1371 60.2677 20.3505 59.6706 20.9468L47.9514 32.6942L38.7374 15.1521C38.3472 14.4104 37.5781 13.946 36.74 13.946C35.9019 13.946 35.1328 14.4104 34.7426 15.1521L29.704 24.7442L17.0651 1.17037C16.6067 0.314133 15.652 -0.152844 14.6947 0.0109723C13.7374 0.174788 12.9922 0.932658 12.8446 1.89259L0.628906 80.0901L33.2982 98.4052C35.3496 99.5506 37.8483 99.5506 39.8997 98.4052L72.8511 80.0901L63.4905 22.1656Z" fill="white"/>
</mask>
<g mask="url(#mask0_1351_524)">
<path d="M0.628906 80.0901L12.8503 1.88699C12.9997 0.927896 13.7456 0.171738 14.7025 0.00925769C15.6595 -0.153222 16.6132 0.314371 17.0707 1.17042L29.7096 24.7442L34.7483 15.1522C35.1385 14.4105 35.9076 13.9461 36.7457 13.9461C37.5838 13.9461 38.3528 14.4105 38.7431 15.1522L72.8511 80.0901H0.628906Z" fill="#FFA000"/>
<path d="M42.8507 49.627L29.704 24.7329L0.628906 80.0901L42.8507 49.627Z" fill="#F57C00"/>
</g>
<mask id="mask1_1351_524" style="mask-type:luminance" maskUnits="userSpaceOnUse" x="0" y="-1" width="73" height="101">
<path d="M63.4905 22.1656C63.3491 21.3337 62.7554 20.6501 61.9514 20.3936C61.1475 20.1371 60.2677 20.3505 59.6706 20.9468L47.9514 32.6942L38.7374 15.1521C38.3472 14.4104 37.5781 13.946 36.74 13.946C35.9019 13.946 35.1328 14.4104 34.7426 15.1521L29.704 24.7442L17.0651 1.17037C16.6067 0.314133 15.652 -0.152844 14.6947 0.0109723C13.7374 0.174788 12.9922 0.932658 12.8446 1.89259L0.628906 80.0901L33.2982 98.4052C35.3496 99.5506 37.8483 99.5506 39.8997 98.4052L72.8511 80.0901L63.4905 22.1656Z" fill="white"/>
</mask>
<g mask="url(#mask1_1351_524)">
<path d="M72.8511 80.0901L63.4905 22.1657C63.3491 21.3337 62.7554 20.6502 61.9514 20.3937C61.1475 20.1372 60.2677 20.3506 59.6706 20.9469L0.628906 80.0901L33.2982 98.4109C35.3496 99.5563 37.8483 99.5563 39.8997 98.4109L72.8511 80.0901Z" fill="#FFCA28"/>
</g>
<mask id="mask2_1351_524" style="mask-type:luminance" maskUnits="userSpaceOnUse" x="0" y="-1" width="73" height="101">
<path d="M63.4905 22.1656C63.3491 21.3337 62.7554 20.6501 61.9514 20.3936C61.1475 20.1371 60.2677 20.3505 59.6706 20.9468L47.9514 32.6942L38.7374 15.1521C38.3472 14.4104 37.5781 13.946 36.74 13.946C35.9019 13.946 35.1328 14.4104 34.7426 15.1521L29.704 24.7442L17.0651 1.17037C16.6067 0.314133 15.652 -0.152844 14.6947 0.0109723C13.7374 0.174788 12.9922 0.932658 12.8446 1.89259L0.628906 80.0901L33.2982 98.4052C35.3496 99.5506 37.8483 99.5506 39.8997 98.4052L72.8511 80.0901L63.4905 22.1656Z" fill="white"/>
</mask>
<g mask="url(#mask2_1351_524)">
<path d="M63.4909 22.1656C63.3495 21.3337 62.7558 20.6501 61.9519 20.3936C61.1479 20.1371 60.2681 20.3505 59.671 20.9468L47.9518 32.6942L38.7378 15.1521C38.3476 14.4104 37.5786 13.946 36.7405 13.946C35.9024 13.946 35.1333 14.4104 34.7431 15.1521L29.7044 24.7442L17.0655 1.17037C16.6072 0.314133 15.6524 -0.152844 14.6951 0.0109723C13.7378 0.174788 12.9926 0.932658 12.8451 1.89259L0.62934 80.0901H0.589844L0.62934 80.1352L0.950955 80.2932L47.9293 33.2585L59.6541 21.5224C60.2508 20.9228 61.1328 20.7072 61.9389 20.964C62.7449 21.2208 63.3396 21.9068 63.4796 22.7411L72.7613 80.1465L72.8516 80.0901L63.4909 22.1656ZM0.736545 79.9829L12.8507 2.44554C12.9983 1.48561 13.7434 0.72774 14.7007 0.563924C15.658 0.400108 16.6128 0.867085 17.0712 1.72332L29.7101 25.2971L34.7487 15.7051C35.1389 14.9634 35.908 14.499 36.7461 14.499C37.5842 14.499 38.3533 14.9634 38.7435 15.7051L47.7713 32.8748L0.736545 79.9829Z" fill="white" fill-opacity="0.2"/>
</g>
<mask id="mask3_1351_524" style="mask-type:luminance" maskUnits="userSpaceOnUse" x="0" y="-1" width="73" height="101">
<path d="M63.4905 22.1656C63.3491 21.3337 62.7554 20.6501 61.9514 20.3936C61.1475 20.1371 60.2677 20.3505 59.6706 20.9468L47.9514 32.6942L38.7374 15.1521C38.3472 14.4104 37.5781 13.946 36.74 13.946C35.9019 13.946 35.1328 14.4104 34.7426 15.1521L29.704 24.7442L17.0651 1.17037C16.6067 0.314133 15.652 -0.152844 14.6947 0.0109723C13.7374 0.174788 12.9922 0.932658 12.8446 1.89259L0.628906 80.0901L33.2982 98.4052C35.3496 99.5506 37.8483 99.5506 39.8997 98.4052L72.8511 80.0901L63.4905 22.1656Z" fill="white"/>
</mask>
<g mask="url(#mask3_1351_524)">
<path opacity="0.2" d="M39.8997 97.8579C37.8483 99.0034 35.3496 99.0034 33.2982 97.8579L0.707899 79.588L0.628906 80.0901L33.2982 98.4052C35.3496 99.5507 37.8483 99.5507 39.8997 98.4052L72.8511 80.0901L72.7665 79.571L39.8997 97.8579Z" fill="#A52714"/>
</g>
<path d="M63.3996 22.1774C63.2587 21.3458 62.667 20.6626 61.8659 20.4062C61.0648 20.1498 60.188 20.3631 59.593 20.9592L47.9148 32.7015L38.7331 15.167C38.3442 14.4256 37.5778 13.9614 36.7427 13.9614C35.9075 13.9614 35.1411 14.4256 34.7522 15.167L29.7312 24.7548L17.1365 1.19134C16.6798 0.335471 15.7283 -0.131302 14.7744 0.0324425C13.8204 0.196187 13.0779 0.953726 12.9308 1.91324L0.757812 80.0766L33.3129 98.3837C35.3571 99.5287 37.847 99.5287 39.8913 98.3837L72.7275 80.0766L63.3996 22.1774Z" fill="url(#paint1_linear_1351_524)"/>
</g>
<defs>
<linearGradient id="paint0_linear_1351_524" x1="-251.585" y1="1690" x2="8749.04" y2="6452.2" gradientUnits="userSpaceOnUse">
<stop stop-color="white" stop-opacity="0.1"/>
<stop offset="0.14" stop-color="white" stop-opacity="0.08"/>
<stop offset="0.61" stop-color="white" stop-opacity="0.02"/>
<stop offset="1" stop-color="white" stop-opacity="0"/>
</linearGradient>
<linearGradient id="paint1_linear_1351_524" x1="-250.574" y1="1689.28" x2="8730.59" y2="6426.64" gradientUnits="userSpaceOnUse">
<stop stop-color="white" stop-opacity="0.1"/>
<stop offset="0.14" stop-color="white" stop-opacity="0.08"/>
<stop offset="0.61" stop-color="white" stop-opacity="0.02"/>
<stop offset="1" stop-color="white" stop-opacity="0"/>
</linearGradient>
<clipPath id="clip0_1351_524">
<rect width="355.303" height="100" fill="white"/>
</clipPath>
</defs>
</svg>
