<svg width="300" height="100" viewBox="0 0 300 100" fill="none" xmlns="http://www.w3.org/2000/svg">
<path d="M176.019 75.9219C164.449 84.45 147.679 89 133.24 89C112.995 89 94.7684 81.5119 80.9797 69.0578C79.8963 68.0785 80.867 66.7438 82.167 67.5065C97.0478 76.1646 115.447 81.3733 134.453 81.3733C147.271 81.3733 161.372 78.7212 174.338 73.2179C176.296 72.3858 177.934 74.5005 176.019 75.9219Z" fill="#FF9900"/>
<path d="M180.829 70.4182C179.356 68.5289 171.053 69.5256 167.326 69.9676C166.191 70.1062 166.018 69.1182 167.04 68.4075C173.653 63.7535 184.504 65.0969 185.769 66.6569C187.034 68.2255 185.44 79.1023 179.226 84.2937C178.272 85.091 177.362 84.6664 177.787 83.609C179.182 80.125 182.311 72.3162 180.829 70.4182Z" fill="#FF9900"/>
<path d="M167.586 35.552V31.0279C167.586 30.3433 168.106 29.8839 168.73 29.8839H188.984C189.634 29.8839 190.154 30.3519 190.154 31.0279V34.902C190.146 35.552 189.6 36.4013 188.629 37.7446L178.133 52.7295C182.033 52.6341 186.15 53.2148 189.686 55.2081C190.484 55.6588 190.7 56.3175 190.761 56.9675V61.7949C190.761 62.4535 190.033 63.2249 189.27 62.8262C183.039 59.5589 174.762 59.2035 167.872 62.8609C167.17 63.2422 166.433 62.4795 166.433 61.8209V57.2362C166.433 56.4995 166.442 55.2428 167.179 54.1248L179.338 36.6873H168.756C168.106 36.6873 167.586 36.228 167.586 35.552Z" fill="#221F1F"/>
<path d="M93.7013 63.7798H87.5392C86.9499 63.7365 86.4819 63.2944 86.4385 62.7311V31.1062C86.4385 30.4735 86.9672 29.9708 87.6259 29.9708H93.3719C93.9699 29.9968 94.4466 30.4561 94.4899 31.0281V35.1622H94.6026C96.1019 31.1668 98.9186 29.3035 102.715 29.3035C106.571 29.3035 108.981 31.1668 110.714 35.1622C112.205 31.1668 115.593 29.3035 119.225 29.3035C121.807 29.3035 124.633 30.3695 126.357 32.7615C128.307 35.4222 127.909 39.2876 127.909 42.6763L127.9 62.6358C127.9 63.2684 127.371 63.7798 126.713 63.7798H120.559C119.944 63.7365 119.45 63.2424 119.45 62.6358V45.8743C119.45 44.5396 119.571 41.2116 119.277 39.9462C118.817 37.8229 117.439 37.2249 115.654 37.2249C114.163 37.2249 112.603 38.2215 111.971 39.8162C111.338 41.4109 111.399 44.0803 111.399 45.8743V62.6358C111.399 63.2684 110.87 63.7798 110.211 63.7798H104.058C103.434 63.7365 102.949 63.2424 102.949 62.6358L102.94 45.8743C102.94 42.3469 103.521 37.1555 99.144 37.1555C94.7153 37.1555 94.8886 42.2169 94.8886 45.8743V62.6358C94.8886 63.2684 94.3599 63.7798 93.7013 63.7798Z" fill="#221F1F"/>
<path d="M207.591 29.3035C216.734 29.3035 221.683 37.1555 221.683 47.1396C221.683 56.7857 216.214 64.4384 207.591 64.4384C198.612 64.4384 193.724 56.5864 193.724 46.8016C193.724 36.9562 198.673 29.3035 207.591 29.3035ZM207.643 35.7602C203.102 35.7602 202.816 41.9482 202.816 45.805C202.816 49.6703 202.755 57.9211 207.591 57.9211C212.366 57.9211 212.592 51.265 212.592 47.209C212.592 44.5396 212.479 41.3502 211.673 38.8195C210.98 36.6182 209.602 35.7602 207.643 35.7602Z" fill="#221F1F"/>
<path d="M233.539 63.7798H227.403C226.788 63.7365 226.294 63.2424 226.294 62.6358L226.285 31.0021C226.337 30.4215 226.848 29.9708 227.472 29.9708H233.184C233.721 29.9968 234.163 30.3608 234.284 30.8548V35.6909H234.397C236.122 31.3661 238.54 29.3035 242.795 29.3035C245.56 29.3035 248.255 30.3001 249.988 33.0302C251.6 35.5609 251.6 39.8162 251.6 42.8756V62.7831C251.531 63.3378 251.02 63.7798 250.413 63.7798H244.234C243.67 63.7365 243.202 63.3204 243.142 62.7831V45.6056C243.142 42.1476 243.54 37.0862 239.285 37.0862C237.786 37.0862 236.408 38.0915 235.723 39.6169C234.856 41.5496 234.744 43.4736 234.744 45.6056V62.6358C234.735 63.2684 234.198 63.7798 233.539 63.7798Z" fill="#221F1F"/>
<path d="M151.439 48.6735V47.3388C146.985 47.3388 142.279 48.2922 142.279 53.5442C142.279 56.2049 143.657 58.0076 146.023 58.0076C147.756 58.0076 149.307 56.9416 150.287 55.2082C151.5 53.0762 151.439 51.0742 151.439 48.6735ZM157.653 63.693C157.246 64.057 156.657 64.083 156.197 63.8403C154.152 62.1416 153.788 61.353 152.661 59.7323C149.281 63.1817 146.889 64.213 142.504 64.213C137.321 64.213 133.283 61.015 133.283 54.6102C133.283 49.6095 135.995 46.2035 139.852 44.5395C143.197 43.0661 147.869 42.8061 151.439 42.3988V41.6015C151.439 40.1368 151.552 38.4034 150.694 37.1381C149.94 36.0027 148.501 35.5347 147.236 35.5347C144.887 35.5347 142.79 36.7394 142.279 39.2354C142.175 39.7901 141.767 40.3361 141.213 40.3621L135.233 39.7208C134.73 39.6081 134.175 39.2008 134.314 38.4294C135.692 31.184 142.235 29 148.094 29C151.093 29 155.01 29.7973 157.376 32.068C160.375 34.8674 160.089 38.6028 160.089 42.6675V52.2702C160.089 55.1562 161.285 56.4216 162.411 57.9816C162.81 58.5363 162.897 59.2036 162.394 59.6196C161.137 60.6683 158.901 62.6183 157.671 63.7103L157.653 63.693Z" fill="#221F1F"/>
<path d="M70.6568 48.6735V47.3388C66.2021 47.3388 61.4961 48.2922 61.4961 53.5442C61.4961 56.2049 62.8741 58.0076 65.2401 58.0076C66.9734 58.0076 68.5248 56.9416 69.5041 55.2082C70.7175 53.0762 70.6568 51.0742 70.6568 48.6735ZM76.8708 63.693C76.4635 64.057 75.8742 64.083 75.4148 63.8403C73.3695 62.1416 73.0055 61.353 71.8788 59.7323C68.4988 63.1817 66.1068 64.213 61.7214 64.213C56.5387 64.213 52.5 61.015 52.5 54.6102C52.5 49.6095 55.2127 46.2035 59.0694 44.5395C62.4147 43.0661 67.0861 42.8061 70.6568 42.3988V41.6015C70.6568 40.1368 70.7695 38.4034 69.9115 37.1381C69.1574 36.0027 67.7188 35.5347 66.4534 35.5347C64.1047 35.5347 62.0074 36.7394 61.4961 39.2354C61.3921 39.7901 60.9847 40.3361 60.4301 40.3621L54.45 39.7208C53.9473 39.6081 53.3927 39.2008 53.5313 38.4294C54.9093 31.184 61.4527 29 67.3114 29C70.3101 29 74.2275 29.7973 76.5935 32.068C79.5922 34.8674 79.3062 38.6028 79.3062 42.6675V52.2702C79.3062 55.1562 80.5022 56.4216 81.6289 57.9816C82.0275 58.5363 82.1142 59.2036 81.6115 59.6196C80.3549 60.6683 78.1188 62.6183 76.8882 63.7103L76.8708 63.693Z" fill="#221F1F"/>
</svg>
