<svg width="493" height="100" viewBox="0 0 493 100" fill="none" xmlns="http://www.w3.org/2000/svg">
<g clip-path="url(#clip0_1502_2791)">
<path d="M16.1298 65.4125C16.1298 71.1146 17.3814 75.4924 19.0172 78.1409C21.162 81.6099 24.3609 83.0795 27.6222 83.0795C31.8286 83.0795 35.6767 82.0357 43.0925 71.7793C49.0334 63.5586 56.0338 52.0195 60.7439 44.7855L68.7205 32.5297C74.2616 24.0182 80.6751 14.5563 88.0286 8.14281C94.0318 2.90815 100.508 0 107.025 0C117.967 0 128.389 6.3408 136.366 18.233C145.096 31.2574 149.333 47.6624 149.333 64.592C149.333 74.6563 147.35 82.0513 143.974 87.8935C140.713 93.5437 134.356 99.1886 123.664 99.1886V83.0795C132.819 83.0795 135.104 74.6667 135.104 65.0386C135.104 51.3184 131.905 36.0922 124.858 25.2126C119.857 17.4956 113.376 12.7803 106.246 12.7803C98.5342 12.7803 92.3285 18.5966 85.3541 28.9672C81.6462 34.4771 77.8397 41.1918 73.5657 48.7686L68.8608 57.1035C59.4093 73.8617 57.0152 77.6787 52.2895 83.9779C44.0065 95.0081 36.9335 99.1886 27.6222 99.1886C16.5764 99.1886 9.59169 94.4057 5.26582 87.1977C1.7345 81.3242 0 73.6177 0 64.8361L16.1298 65.4125Z" fill="#0081FB"/>
<path d="M12.7227 19.3703C20.1177 7.97144 30.7895 0 43.0297 0C50.1183 0 57.1654 2.09802 64.524 8.10646C72.5734 14.6758 81.1524 25.493 91.8554 43.321L95.6931 49.7189C104.958 65.1529 110.229 73.0932 113.313 76.8374C117.281 81.6462 120.059 83.0795 123.668 83.0795C132.824 83.0795 135.109 74.6667 135.109 65.0386L149.338 64.592C149.338 74.6563 147.354 82.0513 143.979 87.8935C140.717 93.5437 134.361 99.1886 123.668 99.1886C117.021 99.1886 111.132 97.7449 104.62 91.6014C99.6139 86.8861 93.7613 78.5096 89.2588 70.9795L75.8658 48.6076C69.1459 37.3801 62.9817 29.0088 59.414 25.2178C55.5763 21.1412 50.6428 16.2181 42.77 16.2181C36.3981 16.2181 30.9869 20.6894 26.4585 27.5287L12.7227 19.3703Z" fill="url(#paint0_linear_1502_2791)"/>
<path d="M42.7653 16.2181C36.3934 16.2181 30.9822 20.6894 26.4538 27.5287C20.0506 37.1931 16.1298 51.5884 16.1298 65.4125C16.1298 71.1146 17.3814 75.4924 19.0172 78.1409L5.26582 87.1977C1.7345 81.3242 0 73.6177 0 64.8361C0 48.8672 4.38299 32.2233 12.7179 19.3703C20.113 7.97144 30.7848 0 43.025 0L42.7653 16.2181Z" fill="url(#paint1_linear_1502_2791)"/>
<path d="M180.695 3.13672H199.354L231.079 60.5311L262.809 3.13672H281.063V97.4438H265.842V25.1659L238.017 75.2172H223.736L195.916 25.1659V97.4438H180.695V3.13672ZM328.756 38.2993C317.84 38.2993 311.266 46.5148 309.692 56.6882H346.74C345.977 46.2085 339.932 38.2993 328.756 38.2993ZM294.601 62.4837C294.601 41.0777 308.436 25.4983 329.021 25.4983C349.269 25.4983 361.359 40.8803 361.359 63.6262V67.8066H309.692C311.526 78.8732 318.869 86.3305 330.709 86.3305C340.155 86.3305 346.06 83.4483 351.658 78.1773L359.744 88.0806C352.125 95.0861 342.435 99.1263 330.169 99.1263C307.885 99.1263 294.601 82.8771 294.601 62.4837ZM379.815 39.6495H365.804V27.1861H379.815V6.57456H394.501V27.1861H415.788V39.6495H394.501V71.2393C394.501 82.0254 397.949 85.8579 406.425 85.8579C410.293 85.8579 412.511 85.5256 415.788 84.9803V97.3087C411.706 98.4616 407.811 98.9913 403.594 98.9913C387.74 98.9913 379.815 90.3292 379.815 72.9894V39.6495ZM477.627 51.7703C474.678 44.3233 468.098 38.8394 458.428 38.8394C445.861 38.8394 437.817 47.756 437.817 62.2812C437.817 76.4428 445.222 85.7904 457.826 85.7904C467.735 85.7904 474.808 80.026 477.627 72.8543V51.7703ZM492.314 97.4438H477.897V87.608C473.868 93.3983 466.535 99.1263 454.658 99.1263C435.558 99.1263 422.793 83.1367 422.793 62.2812C422.793 41.2283 435.864 25.4983 455.468 25.4983C465.159 25.4983 472.762 29.3724 477.897 36.2117V27.1861H492.314V97.4438Z" fill="#192830"/>
</g>
<defs>
<linearGradient id="paint0_linear_1502_2791" x1="1908.73" y1="5547.99" x2="12178.7" y2="6066.68" gradientUnits="userSpaceOnUse">
<stop stop-color="#0064E1"/>
<stop offset="0.4" stop-color="#0064E1"/>
<stop offset="0.83" stop-color="#0073EE"/>
<stop offset="1" stop-color="#0082FB"/>
</linearGradient>
<linearGradient id="paint1_linear_1502_2791" x1="2336.9" y1="7218.44" x2="2336.9" y2="3427.46" gradientUnits="userSpaceOnUse">
<stop stop-color="#0082FB"/>
<stop offset="1" stop-color="#0064E0"/>
</linearGradient>
<clipPath id="clip0_1502_2791">
<rect width="492.308" height="100" fill="white"/>
</clipPath>
</defs>
</svg>
