<svg width="300" height="100" viewBox="0 0 300 100" fill="none" xmlns="http://www.w3.org/2000/svg">
<path d="M138.707 59.7693C138.707 68.0976 132.192 74.2345 124.196 74.2345C116.201 74.2345 109.685 68.0976 109.685 59.7693C109.685 51.3824 116.201 45.3041 124.196 45.3041C132.192 45.3041 138.707 51.3824 138.707 59.7693ZM132.355 59.7693C132.355 54.565 128.579 51.0041 124.196 51.0041C119.813 51.0041 116.037 54.565 116.037 59.7693C116.037 64.9215 119.813 68.5345 124.196 68.5345C128.579 68.5345 132.355 64.915 132.355 59.7693Z" fill="#EA4335"/>
<path d="M170.014 59.7693C170.014 68.0976 163.499 74.2345 155.503 74.2345C147.508 74.2345 140.993 68.0976 140.993 59.7693C140.993 51.3889 147.508 45.3041 155.503 45.3041C163.499 45.3041 170.014 51.3824 170.014 59.7693ZM163.662 59.7693C163.662 54.565 159.886 51.0041 155.503 51.0041C151.121 51.0041 147.345 54.565 147.345 59.7693C147.345 64.9215 151.121 68.5345 155.503 68.5345C159.886 68.5345 163.662 64.915 163.662 59.7693Z" fill="#FBBC05"/>
<path d="M200.012 46.178V72.1476C200.012 82.8302 193.712 87.1932 186.264 87.1932C179.253 87.1932 175.034 82.5041 173.442 78.6693L178.973 76.3671C179.957 78.7215 182.37 81.4998 186.257 81.4998C191.025 81.4998 193.979 78.5585 193.979 73.0215V70.9411H193.757C192.336 72.6954 189.596 74.228 186.14 74.228C178.907 74.228 172.281 67.928 172.281 59.8215C172.281 51.6563 178.907 45.3041 186.14 45.3041C189.59 45.3041 192.329 46.8367 193.757 48.5389H193.979V46.1845H200.012V46.178ZM194.429 59.8215C194.429 54.728 191.031 51.0041 186.707 51.0041C182.325 51.0041 178.653 54.728 178.653 59.8215C178.653 64.8628 182.325 68.5345 186.707 68.5345C191.031 68.5345 194.429 64.8628 194.429 59.8215Z" fill="#4285F4"/>
<path d="M209.958 30.9568V73.3481H203.762V30.9568H209.958Z" fill="#34A853"/>
<path d="M234.102 64.5297L239.032 67.8166C237.441 70.171 233.606 74.2275 226.98 74.2275C218.763 74.2275 212.626 67.8753 212.626 59.7623C212.626 51.1601 218.815 45.2971 226.27 45.2971C233.776 45.2971 237.448 51.271 238.648 54.4992L239.306 56.1427L219.97 64.1514C221.45 67.0536 223.752 68.534 226.98 68.534C230.215 68.534 232.459 66.9427 234.102 64.5297ZM218.926 59.3253L231.852 53.9579C231.141 52.1514 229.002 50.8927 226.485 50.8927C223.257 50.8927 218.763 53.7427 218.926 59.3253Z" fill="#EA4335"/>
<path d="M86.2333 56.0057V49.8687H106.913C107.116 50.9383 107.22 52.2035 107.22 53.5731C107.22 58.1774 105.961 63.8709 101.905 67.9274C97.9592 72.0361 92.918 74.2274 86.2398 74.2274C73.8617 74.2274 63.4531 64.1448 63.4531 51.7665C63.4531 39.3883 73.8617 29.3057 86.2398 29.3057C93.0875 29.3057 97.9657 31.9926 101.631 35.4948L97.3005 39.8252C94.6723 37.36 91.1115 35.4426 86.2333 35.4426C77.1943 35.4426 70.1248 42.7274 70.1248 51.7665C70.1248 60.8057 77.1943 68.0904 86.2333 68.0904C92.0962 68.0904 95.4353 65.7361 97.5744 63.597C99.3092 61.8622 100.45 59.3839 100.9 55.9991L86.2333 56.0057Z" fill="#4285F4"/>
</svg>
