<svg width="360" height="100" viewBox="0 0 360 100" fill="none" xmlns="http://www.w3.org/2000/svg">
<path d="M300.402 37.5977C300.402 36.1799 301.556 35.0264 302.998 35.0264C304.44 35.0264 305.593 36.1558 305.593 37.5977C305.593 38.9916 304.44 40.1451 302.998 40.1451C301.556 40.1451 300.402 39.0156 300.402 37.5977Z" fill="#000008"/>
<path d="M305.233 43.3413V65.0899H300.763V43.3413H305.233Z" fill="#000008"/>
<path fill-rule="evenodd" clip-rule="evenodd" d="M110.917 57.0148H122.284L124.999 65.0894H129.902L119.136 35.2422H114.137L103.371 65.0894H108.177L110.917 57.0148ZM121.082 53.3139H112.07L116.516 40.2167H116.636L121.082 53.3139Z" fill="#000008"/>
<path fill-rule="evenodd" clip-rule="evenodd" d="M144.102 65.3067C149.558 65.3067 153.186 60.957 153.186 54.2041C153.186 47.4753 149.534 43.1016 144.006 43.1256C140.978 43.1256 138.335 44.6396 137.085 46.9706H137.013V43.3419H132.688V72.2759H137.157V61.5097H137.253C138.551 63.9129 141.002 65.3067 144.102 65.3067ZM142.853 46.8985C146.313 46.8985 148.596 49.8064 148.596 54.2041C148.596 58.65 146.313 61.5338 142.853 61.5338C139.44 61.5338 137.133 58.5779 137.133 54.2041C137.133 49.8544 139.44 46.8985 142.853 46.8985Z" fill="#000008"/>
<path fill-rule="evenodd" clip-rule="evenodd" d="M177.126 54.2032C177.126 60.956 173.497 65.3057 168.042 65.3057C164.942 65.3057 162.491 63.9119 161.193 61.5088H161.097V72.2749H156.627V43.3409H160.953V46.9697H161.025C162.274 44.6386 164.918 43.1246 167.946 43.1246C173.497 43.1006 177.126 47.4743 177.126 54.2032ZM172.536 54.2032C172.536 49.8054 170.253 46.8976 166.792 46.8976C163.38 46.8976 161.073 49.8534 161.073 54.2032C161.073 58.5769 163.38 61.5328 166.792 61.5328C170.253 61.5328 172.536 58.649 172.536 54.2032Z" fill="#000008"/>
<path d="M185.2 35.2422H180.73V65.0894H185.2V35.2422Z" fill="#000008"/>
<path fill-rule="evenodd" clip-rule="evenodd" d="M208.456 58.6968C207.855 62.638 204.01 65.3535 199.084 65.3535C192.763 65.3535 188.822 61.124 188.822 54.299C188.822 47.4741 192.763 43.0522 198.891 43.0522C204.899 43.0522 208.696 47.1857 208.696 53.7944V55.3324H193.34V55.5967C193.34 59.3216 195.671 61.7488 199.204 61.7488C201.679 61.7488 203.626 60.5713 204.226 58.6968H208.456ZM193.364 52.2083H204.25C204.154 48.8679 202.016 46.681 198.915 46.681C195.815 46.681 193.58 48.9159 193.364 52.2083Z" fill="#000008"/>
<path d="M247.268 43.1245V65.0894H251.522V35.2422H246.139L236.502 58.7931H236.334L226.673 35.2422H221.314V65.0894H225.544V43.1245H225.688L234.7 64.8491H238.136L247.124 43.1245H247.268Z" fill="#000008"/>
<path d="M275.312 65.09H271.034V61.3411H270.938C269.688 63.9365 267.525 65.3303 264.185 65.3303C259.451 65.3303 256.543 62.2783 256.543 57.2797V43.3174H261.013V56.4146C261.013 59.7309 262.575 61.4852 265.675 61.4852C268.895 61.4852 270.842 59.2503 270.842 55.8619V43.3174H275.312V65.09Z" fill="#000008"/>
<path d="M296.412 49.5887C296.292 45.7437 292.856 43.0762 288.025 43.0762C282.979 43.0762 279.518 45.7196 279.494 49.5166C279.494 52.5446 281.489 54.5392 285.406 55.5005L289.299 56.4618C291.582 57.0385 292.399 57.7595 292.399 59.1052C292.399 60.8355 290.717 61.9409 288.049 61.9409C285.358 61.9409 283.676 60.8355 283.363 58.7448H278.941C279.278 62.734 282.738 65.3534 287.857 65.3534C293.168 65.3534 296.893 62.6619 296.893 58.7448C296.893 55.5486 295.235 53.9384 290.861 52.881L287.208 52.0399C284.949 51.4632 283.868 50.5981 283.868 49.3003C283.868 47.5941 285.478 46.4887 287.905 46.4887C290.38 46.4887 292.015 47.6662 292.207 49.5887H296.412Z" fill="#000008"/>
<path d="M319.347 46.8012C322.279 46.8012 324.082 48.5074 324.466 50.8144H328.72C328.359 46.5609 324.875 43.0522 319.299 43.0522C313.147 43.0522 309.086 47.45 309.086 54.2029C309.086 61.124 313.147 65.3535 319.347 65.3535C324.61 65.3535 328.263 62.2775 328.768 57.7115H324.466C323.961 60.2348 322.135 61.6286 319.371 61.6286C315.935 61.6286 313.628 58.841 313.628 54.2029C313.628 49.685 315.911 46.8012 319.347 46.8012Z" fill="#000008"/>
<path fill-rule="evenodd" clip-rule="evenodd" d="M90.5686 39.9124C90.5686 39.1914 90.5686 38.4705 90.5686 37.7495C90.5686 37.1487 90.5686 36.5239 90.5445 35.9231C90.5205 34.6014 90.4244 33.2556 90.1841 31.9579C89.9438 30.6362 89.5593 29.3865 88.9344 28.1849C88.3337 27.0074 87.5406 25.902 86.6034 24.9647C85.6662 24.0275 84.5848 23.2344 83.3832 22.6337C82.1816 22.0088 80.932 21.6243 79.6102 21.384C78.2885 21.1437 76.9668 21.0716 75.6451 21.0235C75.0443 21.0235 74.4435 20.9995 73.8187 20.9995C73.0977 20.9995 72.3768 20.9995 71.6558 20.9995H49.0182C48.2973 20.9995 47.5763 20.9995 46.8554 20.9995C46.2546 20.9995 45.6298 20.9995 45.029 21.0235C43.7073 21.0716 42.3615 21.1437 41.0638 21.384C39.718 21.6243 38.4924 22.0088 37.2909 22.6337C36.0893 23.2344 35.0079 24.0275 34.0707 24.9647C33.1334 25.902 32.3404 26.9834 31.7396 28.1849C31.1148 29.3865 30.7303 30.6121 30.49 31.9579C30.2497 33.2796 30.1776 34.6014 30.1295 35.9231C30.1295 36.5239 30.1055 37.1487 30.1055 37.7495C30.1055 38.4705 30.1055 39.1914 30.1055 39.9124V62.5501C30.1055 63.271 30.1055 63.992 30.1055 64.7129C30.1055 65.3137 30.1055 65.9385 30.1295 66.5393C30.1535 67.8611 30.2497 69.2068 30.49 70.5045C30.7303 71.8263 31.1148 73.0759 31.7396 74.2775C32.3404 75.455 33.1334 76.5605 34.0707 77.4977C35.0079 78.435 36.0893 79.228 37.2909 79.8288C38.4924 80.4536 39.718 80.8621 41.0638 81.0784C42.3855 81.3187 43.7073 81.3908 45.029 81.4389C45.6298 81.4629 46.2546 81.4629 46.8554 81.4629C47.5763 81.4629 48.2973 81.4629 49.0182 81.4629H71.6558C72.3768 81.4629 73.0977 81.4629 73.8187 81.4629C74.4195 81.4629 75.0443 81.4629 75.6451 81.4389C76.9668 81.4149 78.3125 81.3187 79.6102 81.0784C80.932 80.8381 82.1816 80.4536 83.3832 79.8288C84.5607 79.228 85.6662 78.435 86.6034 77.4977C87.5406 76.5605 88.3337 75.4791 88.9344 74.2775C89.5593 73.0759 89.9438 71.8263 90.1841 70.5045C90.4244 69.1828 90.4965 67.8611 90.5445 66.5393C90.5686 65.9385 90.5686 65.3137 90.5686 64.7129C90.5686 63.992 90.5686 63.271 90.5686 62.5501V39.9124Z" fill="url(#paint0_linear_816_3420)"/>
<path fill-rule="evenodd" clip-rule="evenodd" d="M72.8515 30.2293C72.7073 30.2533 71.4096 30.4696 71.2414 30.4936L53.2659 34.1464C52.7852 34.2425 52.4248 34.4108 52.1364 34.6511C51.8 34.9394 51.6077 35.348 51.5356 35.8046C51.5356 35.9247 51.5116 36.117 51.5116 36.4294C51.5116 36.4294 51.5116 54.7895 51.5116 58.9229C51.5116 59.4516 51.4635 59.9563 51.103 60.3889C50.7426 60.8214 50.31 60.9656 49.7813 61.0618C49.3968 61.1339 48.9883 61.23 48.6038 61.3021C47.1138 61.5905 46.1526 61.8067 45.2874 62.1432C44.4463 62.4796 43.8215 62.8882 43.3169 63.3928C42.3316 64.4262 41.923 65.844 42.0672 67.1417C42.1874 68.2712 42.692 69.3286 43.5572 70.1457C44.1339 70.6744 44.8789 71.0829 45.744 71.2752C46.6332 71.4434 47.5945 71.3953 48.9883 71.107C49.7333 70.9628 50.4302 70.7225 51.079 70.3379C51.7279 69.9534 52.3046 69.4247 52.7372 68.7999C53.1697 68.1751 53.4581 67.4782 53.6263 66.7332C53.7946 65.9642 53.8186 65.2673 53.8186 64.4983V44.9846C53.8186 43.9273 54.107 43.6629 54.9481 43.4707C54.9481 43.4707 69.8956 40.4667 70.5925 40.3225C71.5778 40.1303 72.0344 40.4186 72.0344 41.428V54.7415C72.0344 55.2702 72.0344 55.7988 71.674 56.2314C71.3135 56.664 70.8809 56.8082 70.3522 56.9043C69.9677 56.9764 69.5592 57.0725 69.1747 57.1446C67.6847 57.433 66.7235 57.6493 65.8584 57.9857C65.0173 58.3222 64.3924 58.7307 63.8878 59.2354C62.9025 60.2687 62.4699 61.6866 62.5901 62.9843C62.7102 64.1138 63.2389 65.1712 64.1281 65.9882C64.7048 66.5169 65.4498 66.9255 66.3149 67.0937C67.2041 67.2619 68.1654 67.2138 69.5592 66.9255C70.3042 66.7813 71.0011 66.565 71.6499 66.1565C72.2988 65.7719 72.8755 65.2432 73.3081 64.6184C73.7407 63.9936 74.029 63.2967 74.1973 62.5517C74.3655 61.7827 74.3655 61.0858 74.3655 60.3168V31.8394C74.3655 30.782 73.8128 30.1572 72.8515 30.2293Z" fill="white"/>
<defs>
<linearGradient id="paint0_linear_816_3420" x1="60.337" y1="81.2358" x2="60.337" y2="22.3023" gradientUnits="userSpaceOnUse">
<stop stop-color="#FA233B"/>
<stop offset="1" stop-color="#FB5C74"/>
</linearGradient>
</defs>
</svg>
